<svg id="Calque_1" data-name="Calque 1" xmlns="http://www.w3.org/2000/svg" xmlns:xlink="http://www.w3.org/1999/xlink" viewBox="0 0 39.51 61.08"><defs><style>.cls-1,.cls-3{fill:none;}.cls-2{clip-path:url(#clip-path);}.cls-3{stroke:#002032;stroke-miterlimit:10;stroke-width:1.63px;}</style><clipPath id="clip-path" transform="translate(-9.59 -7.24)"><rect class="cls-1" x="0.59" y="0.24" width="57.5" height="69.08"/></clipPath></defs><title>cadeau</title><g class="cls-2"><path class="cls-3" d="M36.82,53l9.77-.65M36.43,45.62c2.92.15,7,.27,10,.42m-35.09,6.9q6.58.18,13.16.06M11.12,45.85l13.35-.62M23.12,18.16a7.4,7.4,0,0,0-1.56-1.87,3.69,3.69,0,0,0-2.24-.87,1,1,0,0,0-.38.06c-.47.21-.42.91-.19,1.37a6.89,6.89,0,0,0,1.14,1.55L23,21.87a8.59,8.59,0,0,0,1.47,1.42c1,.68.64-.3.47-1A15,15,0,0,0,23.12,18.16Zm1-2.29c-1.34-2.18-3-4.41-5.4-5.25a2.72,2.72,0,0,0-1.84-.1,2.77,2.77,0,0,0-1.48,2.17,10.87,10.87,0,0,0,.88,5.9,32.39,32.39,0,0,0,2.47,5.14,8.89,8.89,0,0,0,1.69,2.21,8.22,8.22,0,0,0,3.28,1.59C33,30.11,26.45,19.7,24.11,15.87ZM36.7,13.35a4,4,0,0,1,2.17-.8,1.91,1.91,0,0,1,1.85,1.19,2.93,2.93,0,0,1-.95,2.6C38.66,17.63,32,23.2,32,23.2,29.82,21.41,35.18,14.37,36.7,13.35ZM26,29.21c-4.66,1.56-10.77.32-15.59,1.2.58,11,1,25.64,1.83,36.67,4-.19,9.79-.4,13.76-.6m8.83-36.82,10.67-.25A340.9,340.9,0,0,0,48.18,65.1l-10.86.83M31.27,13.78a11.43,11.43,0,0,1,9.22-5.72,5.56,5.56,0,0,1,1.91.22c2.49.82,3.51,4.05,2.75,6.56s-2.79,4.42-4.83,6.07-8.16,8-10.18,4.59C28.29,22.36,29.58,16.67,31.27,13.78Zm3.58,13.88a319.75,319.75,0,0,1,2.11,39l-11.07.84c-1.22.09-1.44-23.62-1.34-25.78.16-3.53-.28-9,1.15-12.27C27,26.59,32.09,27.72,34.85,27.66Z" transform="translate(-9.59 -7.24)"/></g></svg>