<?xml version="1.0" encoding="utf-8"?>
<!-- Generator: Adobe Illustrator 16.0.0, SVG Export Plug-In . SVG Version: 6.00 Build 0)  -->
<!DOCTYPE svg PUBLIC "-//W3C//DTD SVG 1.1//EN" "http://www.w3.org/Graphics/SVG/1.1/DTD/svg11.dtd">
<svg version="1.1" id="Calque_1" xmlns="http://www.w3.org/2000/svg" xmlns:xlink="http://www.w3.org/1999/xlink" x="0px" y="0px"
	 width="1280px" height="437.089px" viewBox="0 0 1280 437.089" enable-background="new 0 0 1280 437.089"
	 xml:space="preserve">
<path fill="#0B3FC1" d="M1280,437.089c-3.393-40.277-51.459-62.908-91.609-58.265c-40.149,4.644-75.679,27.16-113.683,40.919
	c-84.224,30.49-183.542,15.045-254.53-39.58c-27.91-21.479-51.726-48.548-82.4-65.849c-56.785-32.029-127.021-25.45-190.877-12.308
	c-63.856,13.145-128.805,32.018-193.149,21.521c-47.146-7.69-90.633-30.901-128.604-59.886
	c-40.097-30.607-77.45-69.16-126.677-80.167c-32.214-7.202-65.746-1.557-98.267,4.104L0.089,0H1280.5L1279.797,437.089z"/>
</svg>
