<?xml version="1.0" encoding="utf-8"?>
<!-- Generator: Adobe Illustrator 16.0.0, SVG Export Plug-In . SVG Version: 6.00 Build 0)  -->
<!DOCTYPE svg PUBLIC "-//W3C//DTD SVG 1.1//EN" "http://www.w3.org/Graphics/SVG/1.1/DTD/svg11.dtd">
<svg version="1.1" id="Calque_1" xmlns="http://www.w3.org/2000/svg" xmlns:xlink="http://www.w3.org/1999/xlink" x="0px" y="0px"
	 width="69.265px" height="85.61px" viewBox="0 0 69.265 85.61" enable-background="new 0 0 69.265 85.61" xml:space="preserve">
<path fill="#FFFFFF" d="M25.417,16.801c1.588,0.6,3.057-0.449,3.958-1.693c0.298-0.411,0.071-1.045-0.336-1.283
	c-0.473-0.277-0.984-0.075-1.283,0.336c-0.257,0.356-0.637,0.718-1.052,0.881c-0.359,0.142-0.651,0.029-0.851-0.092
	c-0.535-0.325-0.909-0.853-1.247-1.546c-0.28-0.572-0.493-1.205-0.654-1.852c1.579-0.364,3.144-0.659,4.766-0.749
	c0.505-0.028,0.94-0.406,0.938-0.937c-0.005-1.858-0.245-3.881-1.122-5.545c-0.453-0.856-1.176-1.612-2.131-1.88
	c-1.015-0.285-2.069,0.014-2.835,0.717c-1.415,1.301-1.804,3.647-1.838,5.476c-0.037,1.937,0.419,4.031,1.281,5.765
	C23.527,15.436,24.31,16.382,25.417,16.801 M25.455,4.211C25.574,4.185,25.499,4.204,25.455,4.211 M24.596,4.816
	c0.089-0.131,0.358-0.394,0.491-0.472c0.012-0.007,0.113-0.053,0.144-0.07c0.063-0.021,0.128-0.041,0.193-0.056
	c0.01-0.002,0.015-0.003,0.024-0.005c0.103-0.009,0.21-0.005,0.315,0.004c-0.023,0.018,0.413,0.139,0.233,0.056
	c0.046,0.021,0.264,0.158,0.264,0.148c0.111,0.089,0.213,0.193,0.306,0.301c0.015,0.022,0.102,0.133,0.107,0.139
	c0.051,0.079,0.102,0.157,0.149,0.239c0.651,1.12,0.875,2.532,0.936,3.904c-1.387,0.135-2.749,0.386-4.111,0.694
	c-0.021-0.236-0.036-0.47-0.042-0.697C23.567,7.566,23.789,6.007,24.596,4.816"/>
<path fill="#FFFFFF" d="M28.548,18.387c-0.271,2.809,2.599,4.855,5.192,4.552c2.497-0.292,4.8-2.051,5.718-4.395
	c0.456-1.166,0.442-2.479-0.054-3.627c-0.474-1.105-1.355-1.94-2.287-2.668c-0.934-0.729-1.977-1.397-2.731-2.324
	c-0.736-0.903-1.072-2.107-0.977-3.261c0.105-1.257,0.838-2.346,1.986-2.872c1.067-0.491,2.272-0.444,3.239,0.231
	c0.415,0.29,1.041,0.075,1.282-0.337c0.273-0.467,0.08-0.992-0.336-1.282c-2.037-1.422-5.079-0.886-6.695,0.94
	c-1.79,2.022-1.761,5.233-0.222,7.395c0.73,1.024,1.721,1.771,2.714,2.521c0.818,0.618,1.705,1.267,2.205,2.174
	c1.023,1.854-0.419,3.969-2.086,4.961c-0.963,0.573-2.123,0.895-3.155,0.601c-1.153-0.329-2.035-1.393-1.918-2.609
	c0.049-0.505-0.466-0.937-0.938-0.937C28.939,17.45,28.597,17.881,28.548,18.387"/>
<path fill="#FFFFFF" d="M13.237,31.352c0.855,3.178,1.56,6.403,2.169,9.634c0.812,4.304,1.412,8.644,1.807,13.005
	c0.045,0.504,0.398,0.938,0.937,0.938c0.472,0,0.984-0.43,0.938-0.938c-0.712-7.875-2.03-15.764-4.121-23.401
	c1.616-0.7,3.247-1.369,4.891-2.002c1.062,4.774,1.929,9.609,2.247,14.494c0.034,0.505,0.408,0.937,0.938,0.937
	c0.482,0,0.971-0.43,0.937-0.937c-0.333-5.11-1.237-10.174-2.352-15.167c0.027-0.011,0.055-0.022,0.083-0.032
	c2.006-0.738,4.03-1.426,6.068-2.068c1.148-0.361,0.657-2.171-0.498-1.808c-4.35,1.369-8.63,2.963-12.82,4.765
	c-0.268-0.899-0.564-1.791-0.924-2.658c-0.361-0.867-0.734-1.753-1.348-2.477c-0.593-0.702-1.471-1.147-2.401-0.948
	c-0.909,0.193-1.525,0.963-1.964,1.73c-1.54,2.694-2.373,5.742-2.729,8.822c-1.562,0.82-3.112,1.664-4.64,2.545
	c-1.045,0.603-0.102,2.224,0.946,1.619c1.161-0.669,2.335-1.314,3.516-1.948c-0.002,0.04-0.005,0.08-0.007,0.12
	c-0.202,4.79,0.642,9.552,1.464,14.251c0.088,0.498,0.698,0.779,1.153,0.654c0.528-0.145,0.742-0.652,0.655-1.152
	c-0.845-4.83-1.729-9.939-1.34-14.891C8.945,33.353,11.078,32.324,13.237,31.352 M8.536,27.197c0.315-0.742,0.664-1.524,1.124-2.188
	c0.127-0.184,0.316-0.474,0.56-0.501c0.186-0.021,0.377,0.164,0.508,0.303c0.52,0.546,0.824,1.356,1.099,2.044
	c0.352,0.875,0.642,1.773,0.904,2.678c-1.894,0.846-3.768,1.736-5.621,2.669C7.39,30.5,7.846,28.826,8.536,27.197"/>
<path fill="#FFFFFF" d="M33.55,48.501c-1.001,0.604-2.004,1.263-3.041,1.835c-0.286-3.15-0.637-6.295-1.043-9.432
	c0.562-0.177,1.123-0.353,1.685-0.53c0.17-0.053,0.341-0.107,0.512-0.161c0.467-0.146,0.815-0.659,0.655-1.153
	c-0.152-0.469-0.653-0.812-1.154-0.655c-0.649,0.205-1.3,0.409-1.95,0.613c-0.255-1.861-0.525-3.72-0.816-5.576
	c-0.217-1.378-0.447-2.754-0.684-4.129c0.785-0.191,1.564-0.438,2.333-0.66c1.038-0.3,2.11-0.571,3.113-0.978
	c0.469-0.191,0.8-0.624,0.656-1.153c-0.123-0.445-0.682-0.847-1.154-0.655c-1.003,0.407-2.076,0.678-3.113,0.978
	c-1.038,0.301-2.09,0.645-3.155,0.835c-0.499,0.089-0.781,0.697-0.655,1.153c0.628,3.573,1.18,7.159,1.666,10.753
	c-0.107,0.034-0.215,0.068-0.324,0.102c-0.467,0.147-0.814,0.66-0.654,1.153c0.151,0.47,0.651,0.813,1.152,0.655
	c0.027-0.008,0.053-0.016,0.078-0.024c0.224,1.749,0.436,3.499,0.622,5.252c0.181,1.687,0.342,3.375,0.486,5.065
	c0.063,0.752,0.737,1.109,1.41,0.81c1.503-0.67,2.914-1.631,4.321-2.479C35.529,49.497,34.586,47.876,33.55,48.501"/>
<path fill="#FFFFFF" d="M36.665,44.986c0.86-0.164,1.733-0.276,2.603-0.396c0.104-0.015,0.211-0.029,0.315-0.044
	c0.06-0.008,0.119-0.016,0.181-0.023c0.004-0.002,0.008-0.002,0.016-0.003c0.183-0.024,0.365-0.049,0.55-0.073
	c0.187-0.023,0.373-0.049,0.56-0.072c0.502-0.064,0.938-0.385,0.938-0.938c0-0.457-0.432-1.003-0.938-0.938
	c-1.15,0.148-2.308,0.285-3.455,0.463c0.43-6.009,0.578-12.028,0.584-18.052c0-1.206-1.875-1.208-1.875,0
	c-0.006,6.398-0.168,12.79-0.664,19.171C35.428,44.736,36.115,45.09,36.665,44.986"/>
<path fill="#FFFFFF" d="M41.498,23.764c-0.495,0-0.954,0.429-0.938,0.937c0.084,2.475-0.021,4.964,0.269,7.428
	c0.06,0.503,0.39,0.938,0.938,0.938c0.459,0,0.996-0.431,0.937-0.938c-0.289-2.464-0.185-4.953-0.269-7.428
	C42.419,24.195,42.018,23.764,41.498,23.764"/>
<path fill="#FFFFFF" d="M57.615,34.816c-0.425-0.854-0.941-1.67-1.553-2.405c1.028-0.227,2.025-0.655,2.852-1.221
	c1.463-1.005,3.013-3.081,1.852-4.87c-0.584-0.9-1.678-1.444-2.741-1.44c-1.276,0.005-2.434,0.689-3.424,1.428
	c-0.288,0.215-0.563,0.392-0.685,0.752c-0.094,0.285-0.135,0.6-0.2,0.894c-0.157,0.715-0.308,1.433-0.449,2.152
	c-0.093,0.468-0.179,0.938-0.265,1.408c-0.004,0.014-0.008,0.028-0.008,0.043c-0.154,0.837-0.301,1.676-0.434,2.517
	c-0.49,3.099-0.846,6.218-1.064,9.348c-0.035,0.505,0.457,0.938,0.938,0.938c0.536,0,0.901-0.431,0.937-0.938
	c0.231-3.316,0.623-6.616,1.172-9.89c1.311,1.55,2.09,3.494,2.649,5.456c0.877,3.079,1.287,6.268,1.224,9.47
	c-0.037,1.824-0.227,3.638-0.572,5.429c-0.096,0.496,0.14,1.012,0.654,1.152c0.459,0.126,1.057-0.154,1.153-0.654
	c0.662-3.426,0.827-6.937,0.427-10.404C59.715,40.855,59.021,37.651,57.615,34.816 M58.641,26.883c0.93,0.415,0.675,1.2,0.215,1.846
	c-0.779,1.094-2.336,1.777-3.787,1.942c0.186-0.947,0.383-1.893,0.596-2.836C56.509,27.195,57.636,26.435,58.641,26.883"/>
<path fill="#FFFFFF" d="M67.684,24.36c-0.978-1.03-2.496-1.568-3.799-0.792c-1.121,0.666-1.498,2.016-1.551,3.241
	c-0.057,1.29,0.236,2.547,0.79,3.705c0.724,1.517,1.812,2.824,2.545,4.336c0.461,0.951,0.854,2.015,1.11,3.164
	c0.133,0.595,0.201,1.019,0.175,1.662c-0.015,0.385-0.069,0.717-0.308,1.051c-0.017,0.011-0.082,0.08-0.127,0.124
	c0.018-0.024-0.179,0.114-0.229,0.14c-0.006,0.003-0.007,0.003-0.012,0.006c-0.004,0.001-0.006,0.001-0.01,0.003
	c-0.055,0.02-0.109,0.037-0.164,0.053c-0.053,0.014-0.106,0.025-0.16,0.038c-0.008,0.002-0.012,0.004-0.012,0.005
	c-0.014-0.001-0.029-0.001-0.05-0.002c-0.026-0.001-0.157-0.01-0.212-0.011c-0.038-0.012-0.104-0.029-0.154-0.043
	c-0.012-0.008-0.136-0.056-0.181-0.081c-0.043-0.026-0.085-0.054-0.128-0.08c-0.018-0.011-0.025-0.016-0.036-0.021
	c-0.007-0.007-0.01-0.01-0.021-0.018c-0.444-0.384-0.594-0.615-0.9-1.176c-0.312-0.572-0.458-0.957-0.664-1.61
	c-0.182-0.573-0.326-1.159-0.434-1.752c-0.023-0.134-0.045-0.268-0.065-0.403c-0.001-0.001-0.001-0.004-0.001-0.006
	c-0.008-0.062-0.016-0.124-0.021-0.186c-0.021-0.201-0.034-0.402-0.037-0.605c-0.006-1.205-1.881-1.208-1.875,0
	c0.008,0.955,0.205,1.929,0.451,2.848c0.293,1.097,0.699,2.222,1.334,3.17c0.631,0.94,1.508,1.744,2.684,1.84
	c1.184,0.097,2.363-0.592,2.852-1.67c0.541-1.196,0.383-2.585,0.102-3.828c-0.271-1.19-0.713-2.347-1.235-3.448
	c-0.692-1.459-1.718-2.724-2.455-4.158c-0.565-1.098-0.755-2.081-0.665-3.247c0.004-0.054,0.01-0.108,0.016-0.162
	c0.004-0.026,0.015-0.097,0.021-0.125c0.032-0.155,0.065-0.309,0.114-0.46c0.018-0.054,0.035-0.108,0.056-0.162
	c0.019-0.038,0.037-0.075,0.058-0.112c0.023-0.038,0.17-0.243,0.147-0.228c0.254-0.27,0.573-0.389,0.974-0.236
	c0.517,0.199,0.987,0.772,1.302,1.32c0.331,0.577,0.524,1.147,0.466,1.708c-0.053,0.505,0.469,0.938,0.938,0.938
	c0.551,0,0.885-0.432,0.938-0.938C69.389,26.798,68.584,25.313,67.684,24.36 M63.086,35.882
	C63.079,35.833,63.07,35.754,63.086,35.882"/>
<path fill="#FFFFFF" d="M40.367,21.752v0.004c0.002,0.005,0.003,0.009,0.004,0.013c0.002,0.005,0.094,0.22,0.096,0.225
	c0,0.002,0.002,0.003,0.002,0.005c0.002,0.003,0.004,0.006,0.004,0.009c0.041,0.065,0.099,0.147,0.162,0.205
	c0.031,0.029,0.08,0.063,0.102,0.079c0.021,0.017,0.068,0.056,0.104,0.079c0.006,0.005,0.014,0.009,0.022,0.013
	c0.037,0.017,0.096,0.04,0.116,0.049c0.016,0.006,0.078,0.034,0.117,0.049c0.004,0.002,0.008,0.003,0.013,0.005
	c0.01,0.003,0.021,0.005,0.03,0.008c0.049,0.01,0.104,0.015,0.151,0.021c0.05,0.007,0.104,0.017,0.158,0.02
	c0.022,0.001,0.046,0,0.067-0.002c0.095-0.008,0.189-0.023,0.281-0.037c0.012-0.002,0.024-0.004,0.036-0.007
	c0.027-0.006,0.054-0.014,0.078-0.025c0.079-0.032,0.16-0.064,0.237-0.1c0.006-0.003,0.011-0.005,0.017-0.008
	c0.013-0.007,0.022-0.014,0.034-0.022c0.109-0.059,0.197-0.139,0.264-0.241c0.082-0.091,0.139-0.197,0.168-0.319
	c0.01-0.083,0.021-0.166,0.032-0.249c0-0.17-0.043-0.327-0.128-0.473c-0.088-0.132-0.177-0.263-0.266-0.394
	c-0.059-0.11-0.139-0.197-0.241-0.263c-0.091-0.083-0.197-0.139-0.319-0.168c-0.124-0.039-0.249-0.045-0.374-0.017
	c-0.124,0.006-0.239,0.043-0.348,0.111c-0.063,0.049-0.127,0.098-0.19,0.147c-0.103,0.103-0.172,0.226-0.219,0.361
	c-0.035,0.042-0.07,0.081-0.1,0.129c-0.002,0.004-0.004,0.009-0.008,0.013c-0.017,0.037-0.045,0.109-0.049,0.117
	c0.008-0.015-0.035,0.078-0.048,0.116c-0.004,0.009-0.006,0.018-0.008,0.027c-0.005,0.03-0.032,0.224-0.033,0.253
	c0,0.001-0.001,0.003-0.001,0.004c0.001,0.004,0.001,0.007,0.001,0.011C40.334,21.519,40.362,21.732,40.367,21.752"/>
<path fill="#FFFFFF" d="M31.901,60.367c-0.803-1.469-1.898-2.832-3.344-3.707c-0.957-0.579-2.043-0.905-3.165-0.889
	c-0.461,0.006-0.916,0.062-1.366,0.147c-0.028-0.2-0.059-0.401-0.088-0.601c-0.071-0.502-0.71-0.777-1.153-0.655
	c-0.54,0.147-0.726,0.649-0.654,1.153c0.027,0.198,0.058,0.396,0.086,0.594c-0.324,0.111-0.645,0.228-0.963,0.347
	c-0.474,0.176-0.797,0.634-0.655,1.153c0.125,0.455,0.676,0.832,1.153,0.654c0.244-0.092,0.491-0.184,0.74-0.274
	c0.976,6.495,2.163,12.957,3.353,19.415c0.353,1.91,0.706,3.82,1.054,5.732c-3.61,1.017-7.709-0.897-9.125-4.429
	c-0.188-0.47-0.626-0.8-1.153-0.655c-0.446,0.123-0.844,0.682-0.654,1.153c1.54,3.842,5.54,6.478,9.717,6.06
	c3.856-0.384,6.792-3.054,8.209-6.565c1.179-2.919,0.998-6.134,0.64-9.2C34.156,66.568,33.476,63.249,31.901,60.367 M32.655,76.689
	c-0.545,2.381-1.906,4.696-3.996,5.982c-1.29-7.057-2.634-14.105-3.782-21.188c-0.201-1.239-0.393-2.479-0.579-3.721
	c0.224-0.044,0.451-0.078,0.677-0.098c0.933-0.079,1.729,0.105,2.431,0.494c1.029,0.57,1.84,1.462,2.478,2.474
	c1.534,2.431,2.224,5.358,2.649,8.22c0.176,1.182,0.303,2.571,0.357,3.863C32.948,74.058,32.954,75.388,32.655,76.689"/>
<path fill="#FFFFFF" d="M39.896,68.408c-0.458-3.903-0.754-7.82-0.938-11.746c-0.057-1.201-1.932-1.209-1.875,0
	c0.185,3.926,0.48,7.843,0.938,11.746c0.06,0.502,0.39,0.937,0.938,0.937C39.418,69.345,39.955,68.914,39.896,68.408"/>
<path fill="#FFFFFF" d="M37.334,53.374c0.118,0.048,0.262,0.056,0.381,0.065c0.021,0.002,0.044,0.002,0.066,0.001
	c0.091-0.007,0.187-0.022,0.277-0.037c0.012-0.002,0.024-0.004,0.037-0.007c0.092-0.022,0.217-0.086,0.28-0.114
	c0.022-0.011,0.044-0.021,0.063-0.035c0.074-0.051,0.143-0.104,0.209-0.162c0.006-0.005,0.146-0.187,0.148-0.192
	c0.001-0.002,0.002-0.004,0.003-0.004c0.011-0.019,0.089-0.209,0.095-0.228l0.002-0.005c0.002-0.005,0.004-0.01,0.006-0.016
	c0.007-0.021,0.012-0.041,0.016-0.063c0.02-0.106,0.035-0.215,0.044-0.323c0.002-0.029,0.003-0.058,0.001-0.088
	c-0.001-0.015-0.002-0.029-0.004-0.045c-0.012-0.097-0.021-0.195-0.04-0.293c-0.006-0.029-0.017-0.061-0.026-0.089
	c-0.031-0.075-0.07-0.185-0.117-0.267c-0.045-0.08-0.131-0.182-0.172-0.231c-0.013-0.015-0.024-0.026-0.037-0.04
	c-0.006-0.006-0.014-0.011-0.021-0.018c-0.065-0.053-0.138-0.111-0.209-0.159c-0.019-0.013-0.035-0.022-0.055-0.031
	c-0.085-0.038-0.181-0.086-0.274-0.112c-0.129-0.037-0.266-0.052-0.4-0.053c-0.078-0.003-0.15,0.01-0.223,0.03
	c-0.008,0.002-0.017,0.001-0.025,0.003c-0.094,0.035-0.192,0.07-0.279,0.121c-0.01,0.006-0.018,0.012-0.027,0.018
	c-0.072,0.051-0.146,0.107-0.212,0.164c-0.019,0.016-0.032,0.032-0.048,0.051c-0.057,0.066-0.113,0.141-0.164,0.211
	c-0.007,0.012-0.014,0.021-0.02,0.032c-0.006,0.009-0.01,0.019-0.016,0.029c-0.039,0.08-0.074,0.167-0.107,0.25
	c-0.006,0.022-0.014,0.044-0.02,0.067c-0.002,0.012-0.004,0.023-0.006,0.037c-0.014,0.09-0.029,0.182-0.036,0.272
	c-0.002,0.024-0.001,0.049,0.002,0.073c0.011,0.097,0.017,0.207,0.046,0.306c0.002,0.01,0.006,0.021,0.008,0.03
	c0.028,0.074,0.066,0.16,0.099,0.232c0.003,0.006,0.007,0.014,0.011,0.021c0.006,0.01,0.01,0.02,0.016,0.029
	c0.047,0.072,0.107,0.142,0.162,0.209c0.015,0.02,0.03,0.037,0.049,0.054c0.076,0.065,0.154,0.13,0.24,0.183
	c0.008,0.006,0.019,0.012,0.027,0.016C37.165,53.309,37.251,53.342,37.334,53.374"/>
<path fill="#FFFFFF" d="M48.177,56.188c-0.144-0.485-0.659-0.791-1.153-0.655c-0.531,0.146-0.74,0.652-0.656,1.153
	c0.27,1.601,0.371,3.226,0.322,4.848c-0.045,1.509-0.135,3.157-0.609,4.601c-0.112,0.341-0.328,0.815-0.637,0.838
	c-0.304,0.021-0.654-0.485-0.826-0.778c-0.721-1.242-1.121-2.749-1.391-4.149c-0.328-1.705-0.359-3.455-0.154-5.177
	c0.059-0.504-0.475-0.938-0.938-0.938c-0.558,0-0.878,0.434-0.937,0.938c-0.222,1.866-0.141,3.746,0.207,5.593
	c0.164,0.879,0.396,1.746,0.694,2.588c0.285,0.807,0.591,1.668,1.081,2.377c0.488,0.705,1.143,1.3,2.027,1.396
	c0.766,0.083,1.492-0.251,1.975-0.841c0.491-0.6,0.747-1.346,0.895-2.098c0.07-0.359,0.131-0.723,0.187-1.086
	c0.427,2.5,0.712,5.023,0.812,7.539c0.08,1.955,0.035,4.152-0.879,5.895c-0.375,0.712-0.935,1.521-1.761,1.75
	c-0.844,0.232-1.797-0.146-2.563-0.622c-2.346-1.455-3.078-4.136-3.317-6.765c-0.046-0.504-0.397-0.938-0.938-0.938
	c-0.471,0-0.982,0.432-0.937,0.938c0.253,2.779,0.946,5.707,3.167,7.588c1.939,1.643,4.793,2.574,6.825,0.552
	c1.673-1.664,2.17-4.12,2.278-6.392c0.113-2.371-0.186-4.758-0.479-7.105C50.004,63.496,49.244,59.803,48.177,56.188"/>
<path fill="#FFFFFF" d="M6.88,20.042c0.535,0,0.905-0.43,0.937-0.937C8.161,13.786,8.504,8.467,8.848,3.149
	c1.046,1.257,1.915,2.646,2.59,4.155c0.245,0.547,1.094,0.598,1.472,0.19c1.48-1.596,3.061-3.102,4.734-4.496
	c-0.035,6.656-0.213,13.304-0.623,19.949c-0.075,1.205,1.8,1.201,1.875,0c0.449-7.295,0.623-14.593,0.63-21.901
	c0-0.643-0.826-1.26-1.411-0.81c-1.991,1.532-3.864,3.196-5.618,4.99c-0.979-1.845-2.26-3.526-3.78-4.961
	C8.103-0.313,7.168,0.121,7.116,0.928C6.725,6.987,6.334,13.046,5.943,19.105C5.91,19.61,6.397,20.042,6.88,20.042"/>
<path fill="#FFFFFF" d="M50.197,47.166c-0.03,0.727-0.096,1.699-0.633,2.138c-0.004-0.011-0.205,0.104-0.15,0.083
	c0.01-0.004-0.168,0.039-0.193,0.042c-0.134,0.013-0.277-0.028-0.395-0.101c-0.314-0.192-0.569-0.637-0.725-1.012
	c-0.291-0.711-0.39-1.535-0.515-2.297c-0.093-0.566-0.178-1.134-0.259-1.701c-0.02-0.147-0.041-0.295-0.061-0.441
	c-0.008-0.053-0.016-0.104-0.022-0.156c-0.001-0.01-0.021-0.159-0.028-0.212c-0.047-0.354-0.092-0.708-0.135-1.063
	c-0.195-1.592-0.359-3.187-0.486-4.785c-0.086-1.06-0.162-2.128-0.216-3.198c0.566-0.109,1.134-0.219,1.7-0.328
	c0.498-0.096,0.996-0.191,1.494-0.287c0.609-0.116,0.861-0.469,1.056-1.015c0.255-0.717,0.339-1.513,0.407-2.265
	c0.087-0.946,0.098-1.902,0.016-2.849c-0.139-1.627-0.5-3.908-2.179-4.678c-1.367-0.628-2.728,0.075-3.36,1.343
	c-0.664,1.33-0.841,2.877-0.957,4.339c-0.153,1.9-0.125,3.814-0.041,5.716c0.166,3.748,0.564,7.493,1.125,11.201
	c0.144,0.945,0.25,1.937,0.541,2.851c0.42,1.319,1.295,2.679,2.803,2.802c1.479,0.122,2.498-1.036,2.853-2.357
	c0.153-0.573,0.211-1.177,0.235-1.769C52.122,45.96,50.247,45.962,50.197,47.166 M46.497,28.016
	c0.007-0.062,0.037-0.301,0.041-0.335c0.021-0.145,0.042-0.29,0.065-0.435c0.05-0.284,0.105-0.567,0.175-0.847
	c0.062-0.25,0.132-0.497,0.218-0.739c0.018-0.052,0.038-0.103,0.057-0.154c0.002-0.006,0.004-0.008,0.004-0.013
	c0.045-0.09,0.084-0.182,0.131-0.27s0.104-0.169,0.154-0.255c0.01-0.016,0.012-0.024,0.018-0.034
	c0.009-0.009,0.016-0.014,0.029-0.027c0.045-0.047,0.102-0.094,0.147-0.144c0.024-0.015,0.048-0.031,0.069-0.045
	c0.007-0.005,0.009-0.007,0.014-0.01c0.004,0,0.004,0,0.008,0c0.03-0.001,0.074-0.018,0.104-0.026
	c0.004-0.001,0.004-0.002,0.008-0.003c0.01,0.001,0.018,0.002,0.031,0.003c0.056,0.004,0.115,0.005,0.172,0.004
	c0.005,0.002,0.007,0.003,0.013,0.005c0.013,0.005,0.044,0.015,0.073,0.023c0.043,0.023,0.115,0.057,0.137,0.066
	c0.008,0.004,0.012,0.005,0.02,0.008c0.039,0.037,0.08,0.072,0.119,0.111c0.036,0.037,0.068,0.076,0.102,0.115
	c0.018,0.024,0.05,0.068,0.072,0.105c0.072,0.122,0.137,0.246,0.203,0.371c0.01,0.021,0.018,0.034,0.024,0.045
	c0.002,0.008,0.007,0.021,0.015,0.041c0.031,0.086,0.062,0.171,0.092,0.258c0.115,0.346,0.197,0.701,0.262,1.059
	c0.016,0.088,0.029,0.175,0.044,0.263c0.002,0.011,0.009,0.061,0.014,0.096c0.003,0.024,0.007,0.053,0.007,0.057
	c0.022,0.198,0.041,0.396,0.055,0.595c0.059,0.801,0.053,1.608-0.008,2.41c-0.013,0.167-0.028,0.334-0.045,0.501
	c-0.007,0.053-0.014,0.106-0.02,0.159c-0.001-0.004-0.023,0.169-0.03,0.211c-0.045,0.284-0.099,0.567-0.173,0.844
	c-0.005,0.015-0.01,0.03-0.014,0.045c-0.863,0.165-1.725,0.331-2.588,0.498C46.289,31.047,46.331,29.524,46.497,28.016"/>
</svg>
