<?xml version="1.0" encoding="utf-8"?>
<!-- Generator: Adobe Illustrator 16.0.0, SVG Export Plug-In . SVG Version: 6.00 Build 0)  -->
<!DOCTYPE svg PUBLIC "-//W3C//DTD SVG 1.1//EN" "http://www.w3.org/Graphics/SVG/1.1/DTD/svg11.dtd">
<svg version="1.1" id="Calque_1" xmlns="http://www.w3.org/2000/svg" xmlns:xlink="http://www.w3.org/1999/xlink" x="0px" y="0px"
	 width="363.318px" height="345.965px" viewBox="0 0 363.318 345.965" enable-background="new 0 0 363.318 345.965"
	 xml:space="preserve">
<path fill="none" stroke="#97AAE5" stroke-width="1.81" stroke-linecap="round" stroke-linejoin="round" stroke-miterlimit="10" d="
	M225.571,42.347c1.656-1.047,5.44-0.53,7.143-0.441c5.786,0.303,11.447,1.875,16.834,3.943c8.871,3.407,17.759,8.542,23.115,16.638
	c1.651,2.494,0.258,3.941-1.048,6.467c-1.3,2.513-2.709,4.97-4.223,7.361c-3.027,4.78-6.471,9.298-10.283,13.48
	c-2.705,2.967-5.708,5.842-9.461,7.27c-0.983,0.374-2.103,0.719-2.616,1.637c-0.818,1.462,0.386,3.524-0.583,4.891
	c-5.178-0.446-10.303-1.502-15.235-3.139c-5.6-1.858-11.341-4.838-13.906-10.152c1.206-0.63,2.329-1.42,3.329-2.342
	c-3.627-6.574-4.934-14.398-3.64-21.795c-2.34,2.353-6.508,1.28-8.936-0.982c-2.461-2.295-3.93-5.62-3.966-8.985
	s1.359-6.722,3.771-9.069c1.56-1.519,3.616-2.642,5.794-2.659c4.299-0.031,7.37,3.929,10.92,6.354
	c0.6-2.076,1.094-6.745,2.684-8.241C225.355,42.496,225.458,42.418,225.571,42.347z"/>
<path fill="none" stroke="#97AAE5" stroke-width="1.81" stroke-linecap="round" stroke-linejoin="round" stroke-miterlimit="10" d="
	M210.483,50.33c-2.483,0.363-4.389,2.797-4.461,5.307c-0.072,2.508,1.485,4.908,3.649,6.177c1.028,0.603,2.233,0.985,3.411,0.808
	C219.922,61.597,217.539,49.298,210.483,50.33z"/>
<path fill="none" stroke="#97AAE5" stroke-width="1.81" stroke-linecap="round" stroke-linejoin="round" stroke-miterlimit="10" d="
	M273.799,64.326c-6.569,2.57-14.014,0.735-20.568-1.872c-8.583-3.413-16.672-8.137-23.662-14.175
	c-1.621-1.399-3.194-2.884-4.412-4.645c-0.194-0.282,0.037-0.888,0.22-0.599"/>
<path fill="none" stroke="#97AAE5" stroke-width="1.81" stroke-linecap="round" stroke-linejoin="round" stroke-miterlimit="10" d="
	M237.855,95.846c-4.487-1.559-8.8-3.622-12.829-6.141"/>
<path fill="none" stroke="#97AAE5" stroke-width="1.81" stroke-linecap="round" stroke-linejoin="round" stroke-miterlimit="10" d="
	M205.415,187.428c-5.757-12.785-11.514-25.57-17.271-38.355c-2.673,2.543-3.975,6.286-4.156,9.971
	c-0.182,3.686,0.659,7.348,1.747,10.874c1.383,4.483,3.198,8.889,5.987,12.66c2.788,3.773,6.625,6.891,11.129,8.203
	c-3.938,3.955-7.942,8.021-8.189,13.597c-0.14,3.166,2.227,8.113,4.864,9.869c2.511,1.672,5.881,1.156,8.703,0.096l-0.791-22.649
	c4.054,6.004,8.106,12.006,12.159,18.01c0.267,0.396,0.567,0.817,1.023,0.957c0.452,0.14,0.937-0.036,1.372-0.22
	c2.584-1.092,5.09-2.666,6.55-5.062c2.843-4.669,0.621-11.194-3.76-14.462c-4.382-3.268-10.244-3.848-15.679-3.25
	c2.793-1.751,4.595-4.792,5.448-7.975c0.854-3.184,0.855-6.531,0.71-9.824c-0.137-3.079-1.906-7.522-2.996-10.406
	c-1.333-3.523-8.33-12.915-11.716-14.808C200.55,144.654,203.751,183.734,205.415,187.428z"/>
<path fill="none" stroke="#97AAE5" stroke-width="1.81" stroke-linecap="round" stroke-linejoin="round" stroke-miterlimit="10" d="
	M204.327,209.836c0.024,0.209,0.022,0.477-0.168,0.566c-0.088,0.042-0.191,0.029-0.288,0.012c-3.239-0.544-5.833-3.683-5.757-6.968
	c0.037-1.598,0.711-3.141,1.76-4.336c0.519-0.591,3.189-2.946,4.069-2.219c0.585,0.482-0.106,5.348-0.092,6.265
	C203.891,205.389,204.05,207.62,204.327,209.836z"/>
<path fill="none" stroke="#97AAE5" stroke-width="1.81" stroke-linecap="round" stroke-linejoin="round" stroke-miterlimit="10" d="
	M222.886,205.429c1.356-1.463,2.168-3.436,2.161-5.43c-0.008-1.994-0.851-3.986-2.327-5.327c-1.479-1.343-3.454-1.976-5.383-2.495
	c-0.716-0.192-1.447-0.375-2.188-0.338c-1.628,0.081-1.8,0.67-0.994,1.796c0.955,1.335,2.046,2.59,3.04,3.898
	C219.158,200.117,221.056,202.75,222.886,205.429z"/>
<path fill="none" stroke="#97AAE5" stroke-width="1.81" stroke-linecap="round" stroke-linejoin="round" stroke-miterlimit="10" d="
	M134.336,27.682c-1.204,1.382-2.64,2.634-4.377,3.217c-1.416,0.474-2.965,0.474-4.424,0.155c-4.355-0.953-7.716-4.645-9.396-8.775
	c-1.681-4.131-1.94-8.686-2.045-13.144c-0.052-2.211,0.061-4.728,1.743-6.164c1.699,3.115,3.61,6.115,5.717,8.971
	c1.054-3.801,2.467-7.502,4.217-11.037c2.721,3.74,5.302,7.583,7.735,11.516c-0.911-1.473,1.411-7.963,2.034-9.526
	c3.463,1.284,3.915,8.729,3.773,11.917C139.105,19.489,137.427,24.133,134.336,27.682z"/>
<path fill="none" stroke="#97AAE5" stroke-width="1.81" stroke-linecap="round" stroke-linejoin="round" stroke-miterlimit="10" d="
	M96.855,14.423c-0.682,4.106-1.938,8.316-4.842,11.298c-4.844,4.972-13.652,4.905-18.877,0.338
	c-5.226-4.568-6.627-12.71-3.871-19.079c0.42-0.97,1.318-2.069,2.302-1.685c0.454,0.178,0.731,0.625,0.989,1.037
	c1.474,2.356,3.331,4.471,5.477,6.237c1.01-2.636,2.022-5.273,3.034-7.909c0.103-0.267,0.215-0.548,0.439-0.725
	c0.594-0.469,1.438,0.067,1.985,0.59c2.676,2.549,5.185,5.276,7.503,8.155c1.838-3.101,4.913-6.993,6.098-6.432
	C98.086,6.72,97.411,11.069,96.855,14.423z"/>
<path fill="none" stroke="#97AAE5" stroke-width="1.81" stroke-linecap="round" stroke-linejoin="round" stroke-miterlimit="10" d="
	M110.135,34.716c-1.777,1.724-4.01,3.104-6.475,3.338c-4.589,0.434-8.909-3.614-9.386-8.198c-0.204-1.968,0.32-4.194,1.968-5.289
	c1.646-1.097,4.441-0.231,4.604,1.741c0.273-1.249,0.65-2.561,1.603-3.413c0.952-0.854,2.656-0.977,3.395,0.067
	c0.527,0.748,0.393,1.78,0.752,2.622c-1.216-2.845,5.466-4.072,6.976-1.263C115.29,27.52,112.321,32.595,110.135,34.716z"/>
<path fill="none" stroke="#97AAE5" stroke-width="1.81" stroke-linecap="round" stroke-linejoin="round" stroke-miterlimit="10" d="
	M127.054,31.438c-3.182,9.599-7.396,18.822-10.812,28.339c-3.416,9.517-6.053,19.475-5.896,29.586
	c-2.459-16.902-4.918-33.803-7.376-50.704"/>
<path fill="none" stroke="#97AAE5" stroke-width="1.81" stroke-linecap="round" stroke-linejoin="round" stroke-miterlimit="10" d="
	M117.119,68.203c4.689-9.445,11.809-17.925,13.9-28.261c1.554,1.72,2.496,3.983,2.623,6.297c0.112,2.023-0.377,4.027-0.949,5.971
	c-2.995,10.192-8.354,19.682-15.535,27.512c-2.2,2.398-4.467,4.684-5.968,7.61C111.771,80.788,114.212,74.056,117.119,68.203z"/>
<path fill="none" stroke="#97AAE5" stroke-width="1.81" stroke-linecap="round" stroke-linejoin="round" stroke-miterlimit="10" d="
	M83.735,29.755c1.174,10.962,4.979,21.513,9.962,31.347c4.982,9.834,11.138,19.019,17.3,28.161"/>
<path fill="none" stroke="#97AAE5" stroke-width="1.81" stroke-linecap="round" stroke-linejoin="round" stroke-miterlimit="10" d="
	M95.238,71.98c-6.506-6.758-11.261-15.187-13.68-24.249c-0.483,4.696-0.957,9.526,0.322,14.07c1.015,3.604,3.086,6.83,5.469,9.72
	c3.465,4.201,7.645,7.812,12.305,10.629c3.103,1.875,6.294,3.836,9.436,5.572C107.034,81.367,99.696,76.611,95.238,71.98z"/>
<path fill="none" stroke="#97AAE5" stroke-width="1.81" stroke-linecap="round" stroke-linejoin="round" stroke-miterlimit="10" d="
	M356.342,186.136c0.604-1.367,2.364-2.043,3.775-1.548s2.349,2.012,2.294,3.506s-1.022,2.886-2.344,3.585
	c-0.682,0.36-1.507,0.551-2.229,0.277c-0.777-0.295-1.274-1.054-1.626-1.808c-0.772-1.658-0.977-3.909,0.438-5.07"/>
<path fill="none" stroke="#97AAE5" stroke-width="1.81" stroke-linecap="round" stroke-linejoin="round" stroke-miterlimit="10" d="
	M355.548,187.554c-20.067-4.504-40.06-9.352-59.96-14.541"/>
<path fill="none" stroke="#97AAE5" stroke-width="1.81" stroke-linecap="round" stroke-linejoin="round" stroke-miterlimit="10" d="
	M311.107,201.702c-1.318-0.705-3.121-0.155-3.929,1.104c-0.808,1.257-0.613,3.03,0.349,4.174c0.963,1.145,2.582,1.646,4.054,1.384
	c0.759-0.136,1.526-0.493,1.927-1.153c0.433-0.711,0.355-1.615,0.169-2.426c-0.411-1.782-1.636-3.682-3.464-3.727"/>
<path fill="none" stroke="#97AAE5" stroke-width="1.81" stroke-linecap="round" stroke-linejoin="round" stroke-miterlimit="10" d="
	M312.604,202.331c13.047-15.899,25.821-32.021,38.313-48.359"/>
<path fill="none" stroke="#97AAE5" stroke-width="1.81" stroke-linecap="round" stroke-linejoin="round" stroke-miterlimit="10" d="
	M350.993,153.239c-0.046-1.378-0.117-2.836-0.881-3.983c-0.763-1.148-2.483-1.774-3.559-0.911c-0.708,0.57-0.911,1.559-1.467,2.278
	c-1.293,1.668-3.954,1.317-5.789,0.274s-3.437-2.621-5.502-3.054c-4.657-0.974-8.428,4.189-13.146,4.801
	c-2.174,0.282-4.711-0.338-6.331,1.139c-0.718,0.654-1.104,1.627-1.872,2.222c-2.149,1.663-5.481-0.62-7.932,0.556
	c-1.995,0.959-2.487,3.782-4.438,4.828c-2.485,1.333-5.874-0.926-8.267,0.569c-1.214,0.758-1.766,2.283-2.951,3.084
	c-1.176,0.794-2.703,0.718-4.109,0.9c-1.406,0.183-2.998,0.899-3.229,2.298"/>
<path fill="none" stroke="#97AAE5" stroke-width="1.81" stroke-linecap="round" stroke-linejoin="round" stroke-miterlimit="10" d="
	M351.993,157.33c-1.554-1.02-3.548-1.338-5.342-0.854c1.335,1.235,2.371,2.79,2.997,4.497l-5.247-0.771
	c-0.285-0.042-0.64-0.054-0.79,0.191c-0.14,0.227-0.007,0.517,0.126,0.748c0.711,1.236,1.422,2.471,2.132,3.707
	c-2.022-0.24-4.044-0.479-6.066-0.718c0.307,2.052,1.608,3.929,3.422,4.938c-0.104,0.678-1.109,0.557-1.748,0.306
	c-1.834-0.722-3.863-0.943-5.811-0.635c1.315,1.477,2.556,3.021,3.714,4.623c-1.604-0.349-3.207-0.698-4.811-1.048
	c-0.504-0.109-1.224-0.084-1.306,0.425c-0.042,0.254,0.124,0.491,0.285,0.692c1.015,1.257,2.256,2.332,3.646,3.155"/>
<path fill="none" stroke="#97AAE5" stroke-width="1.81" stroke-linecap="round" stroke-linejoin="round" stroke-miterlimit="10" d="
	M281.618,168.688c-1.369-2.013-2.367-4.276-2.93-6.646c1.896,1.112,3.605,2.541,5.033,4.209c-0.092-2.005-0.351-4.004-0.771-5.967
	c2.215,1.245,4.215,2.872,5.887,4.785c-0.394-2.453-0.788-4.907-1.183-7.36c1.822,1.472,3.644,2.945,5.465,4.418
	c-0.45-2.264-0.664-4.576-0.639-6.884c2.067,2.218,4.135,4.437,6.201,6.655c-0.826-2.683-1.289-5.478-1.366-8.283
	c1.377,1.979,3.177,3.662,5.245,4.903c-0.341-2.047-0.682-4.095-1.022-6.142c1.743,1.435,3.485,2.871,5.228,4.305
	c0.882-1.727,1.45-3.615,1.668-5.543c1.395,1.685,2.986,3.204,4.733,4.519c-0.267-2.282-0.532-4.564-0.798-6.845
	c1.904,1.718,4.105,3.106,6.477,4.085c-0.132-2.276-0.263-4.554-0.394-6.831c1.302,1.576,2.604,3.152,3.906,4.727
	c0.575-1.935,0.765-3.986,0.555-5.995c2.084,0.925,3.904,2.434,5.2,4.31c0.103-1.723,0.205-3.446,0.308-5.17
	c1.477,0.959,2.813,2.133,3.956,3.473"/>
<path fill="none" stroke="#97AAE5" stroke-width="1.81" stroke-linecap="round" stroke-linejoin="round" stroke-miterlimit="10" d="
	M329.562,143.622l-5.704-5.666c0.548,2.36,0.696,4.813,0.434,7.224c-2.09-1.745-4.18-3.488-6.271-5.232
	c-0.621,2.326-0.718,4.791-0.28,7.158c-1.66-1.314-3.369-2.565-5.122-3.752c-0.776-0.525-1.911-1.007-2.549-0.322
	c-0.319,0.343-0.36,0.853-0.383,1.32c-0.087,1.739-0.173,3.476-0.26,5.213c-1.402-1.742-3.302-3.08-5.412-3.815
	c0.05,2.122,0.101,4.245,0.15,6.367c-1.511-1.789-3.3-3.343-5.283-4.588c-0.007,1.866-0.011,3.733-0.017,5.598
	c-1.579-1.557-3.158-3.114-4.738-4.672c0.054,2.414,0.106,4.829,0.159,7.243l-5.613-5.209c0.06,2.361,0.118,4.721,0.18,7.081
	c-1.701-1.628-3.402-3.257-5.103-4.885c0.836,2.269,1.189,4.714,1.032,7.127c-1.557-1.475-3.114-2.951-4.671-4.426
	c0.356,1.914,0.712,3.828,1.068,5.742c-1.451-1.502-2.902-3.003-4.354-4.504c0.142,1.928,0.712,3.822,1.658,5.508"/>
<path fill="none" stroke="#97AAE5" stroke-width="1.81" stroke-linecap="round" stroke-linejoin="round" stroke-miterlimit="10" d="
	M276.902,155.975c-1.463-2.025-2.382-4.439-2.637-6.925c2.261,1.869,4.42,3.861,6.466,5.963c-0.354-2.076-0.708-4.152-1.062-6.228
	c1.282,1.689,2.981,3.061,4.903,3.959c0.048-2.311,0.096-4.621,0.143-6.931c1.629,1.505,3.258,3.009,4.886,4.514
	c0.284-2.195,0.396-4.412,0.337-6.623c1.74,1.369,3.481,2.737,5.223,4.105c0.095-2.172-0.017-4.354-0.331-6.506
	c1.685,1.79,3.368,3.58,5.052,5.37c0.069-1.811,0.138-3.622,0.207-5.433c1.709,0.86,3.246,2.062,4.493,3.515
	c0.218-2.011,0.009-4.067-0.604-5.995c1.688,1.095,3.279,2.341,4.747,3.718c0.322-1.616,0.21-3.317-0.322-4.877
	c1.487,0.942,2.976,1.885,4.464,2.826l-0.419-5.909c2.217,1.686,4.434,3.374,6.65,5.061c-0.14-1.763-0.28-3.526-0.421-5.289
	c1.866,0.269,3.527,1.647,4.136,3.43"/>
<path fill="none" stroke="#97AAE5" stroke-width="1.81" stroke-linecap="round" stroke-linejoin="round" stroke-miterlimit="10" d="
	M348.333,280.77c4.203,2.122,8.205,4.644,11.935,7.52c-3.871,0.463-7.769,0.712-11.668,0.747"/>
<path fill="none" stroke="#97AAE5" stroke-width="1.81" stroke-linecap="round" stroke-linejoin="round" stroke-miterlimit="10" d="
	M347.543,281.163c2.871,12.533,6.273,24.943,10.195,37.188c0.278,0.871,0.563,1.761,0.528,2.673
	c-0.036,0.945-0.409,1.838-0.776,2.708c-1.254,2.963-2.508,5.927-3.762,8.89"/>
<path fill="none" stroke="#97AAE5" stroke-width="1.81" stroke-linecap="round" stroke-linejoin="round" stroke-miterlimit="10" d="
	M347.755,280.383c-0.774,1.854-1.552,3.718-2.021,5.671c-0.423,1.759-0.591,3.567-0.758,5.368
	c-0.573,6.189-1.146,12.377-1.719,18.565"/>
<path fill="none" stroke="#97AAE5" stroke-width="1.81" stroke-linecap="round" stroke-linejoin="round" stroke-miterlimit="10" d="
	M354.815,321.892c-13.441-0.571-26.883-1.142-40.323-1.713c7.611-3.951,16.206-5.24,24.353-7.648
	c2.853-0.844,4.674-1.589,7.137,0.363c1.611,1.278,2.991,3.023,4.429,4.492C351.124,318.117,353.876,321.852,354.815,321.892z"/>
<path fill="none" stroke="#97AAE5" stroke-width="1.81" stroke-linecap="round" stroke-linejoin="round" stroke-miterlimit="10" d="
	M353.913,332.647l-32.3,12.413c-7.246-8.241-14.492-16.483-21.737-24.725c-0.638-0.724-1.309-1.474-2.203-1.837
	c-0.72-0.292-1.519-0.306-2.296-0.316c-1.992-0.025-3.985-0.05-5.978-0.074c2.7-1.211,5.401-2.421,8.103-3.631
	c1.173-0.526,2.395-1.062,3.681-1.033c1.282,0.029,2.478,0.619,3.624,1.195c3.413,1.718,6.826,3.435,10.24,5.152"/>
<path fill="none" stroke="#97AAE5" stroke-width="1.81" stroke-linecap="round" stroke-linejoin="round" stroke-miterlimit="10" d="
	M302.223,312.977c-0.891,2.118-1.932,4.172-3.111,6.143"/>
<path fill="none" stroke="#97AAE5" stroke-width="1.81" stroke-linecap="round" stroke-linejoin="round" stroke-miterlimit="10" d="
	M353.893,332.261c-15.778-2.535-31.678-4.313-47.626-5.326"/>
<path fill="none" stroke="#97AAE5" stroke-width="1.81" stroke-linecap="round" stroke-linejoin="round" stroke-miterlimit="10" d="
	M329.265,329.265c-2.529,4.824-3.414,10.491-6.646,14.876"/>
<path fill="none" stroke="#97AAE5" stroke-width="1.81" stroke-linecap="round" stroke-linejoin="round" stroke-miterlimit="10" d="
	M341.46,321.169c-3.863-2.265-7.726-4.529-11.589-6.795"/>
<path fill="none" stroke="#97AAE5" stroke-width="1.81" stroke-linecap="round" stroke-linejoin="round" stroke-miterlimit="10" d="
	M156.178,297.443c-2.549-4.453-2.306-10.184-0.035-14.786c2.27-4.602,6.358-8.132,10.934-10.456
	c5.142-2.612,11.209-3.807,16.75-2.205c0.614,2.956,1.047,5.951,0.58,8.933c-0.489,3.137-1.618,6.247-3.716,8.63
	c-1.534,1.742-3.516,3.027-5.541,4.161C169.43,294.925,162.721,297.025,156.178,297.443z"/>
<path fill="none" stroke="#97AAE5" stroke-width="1.81" stroke-linecap="round" stroke-linejoin="round" stroke-miterlimit="10" d="
	M169.904,273.491c2.586,0.641,4.85,2.253,6.677,4.191c1.688,1.793,3.103,4.028,3.175,6.49c0.065,2.214-0.994,4.371-2.58,5.918
	c-1.584,1.547-3.651,2.528-5.787,3.113c-1.562,0.428-3.267,0.647-4.776,0.058c-1.364-0.535-2.397-1.66-3.348-2.775
	c-1.396-1.642-2.739-3.366-3.609-5.339C156.551,278.114,162.64,271.692,169.904,273.491z"/>
<path fill="none" stroke="#97AAE5" stroke-width="1.81" stroke-linecap="round" stroke-linejoin="round" stroke-miterlimit="10" d="
	M171.535,279.478c1.832,1.052,2.653,3.514,1.948,5.506c-0.188,0.53-0.473,1.033-0.876,1.427c-0.629,0.614-1.494,0.919-2.349,1.125
	c-0.932,0.224-1.93,0.349-2.834,0.033c-0.86-0.302-1.559-0.994-1.938-1.823c-0.252-0.551-0.37-1.154-0.453-1.753
	C164.557,280.518,168.222,277.576,171.535,279.478z"/>
<path fill="none" stroke="#97AAE5" stroke-width="1.81" stroke-linecap="round" stroke-linejoin="round" stroke-miterlimit="10" d="
	M183.729,269.222c-1.531-2.458-3.22-4.817-5.053-7.059"/>
<path fill="none" stroke="#97AAE5" stroke-width="1.81" stroke-linecap="round" stroke-linejoin="round" stroke-miterlimit="10" d="
	M178.181,269.279c-1.188-1.312-2.343-2.656-3.462-4.029"/>
<path fill="none" stroke="#97AAE5" stroke-width="1.81" stroke-linecap="round" stroke-linejoin="round" stroke-miterlimit="10" d="
	M171.337,270.49c-1.317-1.146-2.693-2.227-4.121-3.232"/>
<path fill="none" stroke="#97AAE5" stroke-width="1.81" stroke-linecap="round" stroke-linejoin="round" stroke-miterlimit="10" d="
	M164.607,273.333c-1.088-1.249-2.37-2.329-3.785-3.19"/>
<path fill="none" stroke="#97AAE5" stroke-width="1.81" stroke-linecap="round" stroke-linejoin="round" stroke-miterlimit="10" d="
	M160.33,276.545c-1.48-0.801-3.02-1.494-4.6-2.072"/>
<path fill="none" stroke="#97AAE5" stroke-width="1.81" stroke-linecap="round" stroke-linejoin="round" stroke-miterlimit="10" d="
	M155.725,282.515c-1.27-0.521-2.631-0.813-4.002-0.861"/>
<path fill="none" stroke="#97AAE5" stroke-width="1.81" stroke-linecap="round" stroke-linejoin="round" stroke-miterlimit="10" d="
	M153.976,289.19c-2.151-0.42-4.331-0.698-6.521-0.831"/>
<path fill="none" stroke="#97AAE5" stroke-width="1.81" stroke-linecap="round" stroke-linejoin="round" stroke-miterlimit="10" d="
	M154.943,293.243c-1.548,0.101-3.1,0.135-4.65,0.103"/>
<path fill="none" stroke="#97AAE5" stroke-width="1.81" stroke-linecap="round" stroke-linejoin="round" stroke-miterlimit="10" d="
	M155.73,297.48c-1.021,0.121-2.033,0.311-3.029,0.565"/>
<path fill="none" stroke="#97AAE5" stroke-width="1.81" stroke-linecap="round" stroke-linejoin="round" stroke-miterlimit="10" d="
	M31.755,157.143c9.062-1.71,17.469-6.426,26.551-7.975c0.994,2.651,1.105,5.621,0.317,8.479c-0.214,0.775-0.52,1.582-1.182,2.159
	c-0.322,0.281-0.766,0.504-1.183,0.441c-0.46-0.07-0.732-0.454-0.924-0.82c-1.661-3.163-0.717-7.427,2.258-10.192"/>
<path fill="none" stroke="#97AAE5" stroke-width="1.81" stroke-linecap="round" stroke-linejoin="round" stroke-miterlimit="10" d="
	M56.306,160.791c-7.828,2.008-15.657,4.017-23.486,6.024"/>
<path fill="none" stroke="#97AAE5" stroke-width="1.81" stroke-linecap="round" stroke-linejoin="round" stroke-miterlimit="10" d="
	M20.769,173.335c-5.596,1.115-11.097,2.707-16.423,4.754c-0.207,0.079-0.446,0.159-0.645,0.057
	c-0.162-0.083-0.244-0.263-0.315-0.431c-1.698-4.066-2.548-8.483-2.477-12.888c1.789-0.763,3.578-1.527,5.366-2.291
	c2.885-1.231,8.321-4.428,10.84-1.623C18.052,161.955,20.733,173.343,20.769,173.335z"/>
<path fill="none" stroke="#97AAE5" stroke-width="1.81" stroke-linecap="round" stroke-linejoin="round" stroke-miterlimit="10" d="
	M17.201,160.724c4.697-0.871,8.968-3.395,13.669-4.245c0.113-0.021,0.233-0.04,0.34,0.003c0.187,0.076,0.253,0.302,0.295,0.498
	c0.736,3.418,1.343,6.864,1.821,10.328c-4.165,1.495-8.331,2.989-12.496,4.484"/>
<rect x="-905.814" y="-321.643" fill="none" width="1280" height="1721"/>
</svg>
