<?xml version="1.0" encoding="utf-8"?>
<!-- Generator: Adobe Illustrator 16.0.0, SVG Export Plug-In . SVG Version: 6.00 Build 0)  -->
<!DOCTYPE svg PUBLIC "-//W3C//DTD SVG 1.1//EN" "http://www.w3.org/Graphics/SVG/1.1/DTD/svg11.dtd">
<svg version="1.1" id="Calque_1" xmlns="http://www.w3.org/2000/svg" xmlns:xlink="http://www.w3.org/1999/xlink" x="0px" y="0px"
	 width="351.028px" height="400.1px" viewBox="0 0 351.028 400.1" enable-background="new 0 0 351.028 400.1" xml:space="preserve">
<path fill="none" stroke="#97AAE5" stroke-width="1.81" stroke-linecap="round" stroke-linejoin="round" stroke-miterlimit="10" d="
	M31.427,337.949c1.656-1.047,5.441-0.53,7.143-0.441c5.786,0.303,11.447,1.875,16.834,3.943c8.871,3.407,17.758,8.542,23.115,16.638
	c1.651,2.494,0.258,3.941-1.048,6.467c-1.3,2.513-2.709,4.97-4.223,7.361c-3.027,4.78-6.47,9.298-10.283,13.48
	c-2.705,2.967-5.708,5.842-9.461,7.27c-0.983,0.374-2.102,0.719-2.616,1.637c-0.818,1.462,0.386,3.524-0.583,4.891
	c-5.178-0.446-10.303-1.502-15.235-3.139c-5.6-1.858-11.341-4.838-13.907-10.152c1.206-0.63,2.329-1.42,3.33-2.342
	c-3.627-6.574-4.934-14.398-3.64-21.795c-2.34,2.353-6.508,1.28-8.936-0.982c-2.461-2.295-3.929-5.62-3.966-8.985
	c-0.036-3.365,1.36-6.722,3.771-9.069c1.56-1.519,3.616-2.642,5.794-2.659c4.299-0.031,7.37,3.929,10.92,6.354
	c0.6-2.076,1.094-6.745,2.683-8.241C31.211,338.098,31.313,338.02,31.427,337.949z"/>
<path fill="none" stroke="#97AAE5" stroke-width="1.81" stroke-linecap="round" stroke-linejoin="round" stroke-miterlimit="10" d="
	M16.339,345.932c-2.483,0.363-4.389,2.797-4.461,5.307c-0.072,2.508,1.485,4.908,3.65,6.177c1.028,0.603,2.233,0.985,3.411,0.808
	C25.777,357.199,23.395,344.9,16.339,345.932z"/>
<path fill="none" stroke="#97AAE5" stroke-width="1.81" stroke-linecap="round" stroke-linejoin="round" stroke-miterlimit="10" d="
	M79.654,359.928c-6.569,2.57-14.014,0.735-20.568-1.872c-8.583-3.413-16.672-8.137-23.662-14.175
	c-1.621-1.399-3.195-2.884-4.412-4.645c-0.195-0.282,0.037-0.888,0.219-0.599"/>
<path fill="none" stroke="#97AAE5" stroke-width="1.81" stroke-linecap="round" stroke-linejoin="round" stroke-miterlimit="10" d="
	M43.711,391.448c-4.487-1.559-8.8-3.622-12.829-6.141"/>
<path fill="none" stroke="#97AAE5" stroke-width="1.81" stroke-linecap="round" stroke-linejoin="round" stroke-miterlimit="10" d="
	M338.188,145.372c4.203,2.122,8.205,4.644,11.935,7.52c-3.872,0.463-7.769,0.712-11.668,0.747"/>
<path fill="none" stroke="#97AAE5" stroke-width="1.81" stroke-linecap="round" stroke-linejoin="round" stroke-miterlimit="10" d="
	M337.398,145.765c2.871,12.533,6.273,24.943,10.195,37.188c0.279,0.871,0.564,1.761,0.529,2.673
	c-0.036,0.945-0.41,1.838-0.777,2.708c-1.254,2.963-2.508,5.927-3.761,8.89"/>
<path fill="none" stroke="#97AAE5" stroke-width="1.81" stroke-linecap="round" stroke-linejoin="round" stroke-miterlimit="10" d="
	M337.61,144.985c-0.774,1.854-1.552,3.718-2.021,5.671c-0.423,1.759-0.591,3.567-0.758,5.368
	c-0.573,6.189-1.146,12.377-1.719,18.565"/>
<path fill="none" stroke="#97AAE5" stroke-width="1.81" stroke-linecap="round" stroke-linejoin="round" stroke-miterlimit="10" d="
	M344.671,186.494c-13.441-0.571-26.883-1.142-40.323-1.713c7.611-3.951,16.206-5.24,24.352-7.648
	c2.853-0.844,4.674-1.589,7.137,0.363c1.611,1.278,2.991,3.023,4.429,4.492C340.98,182.719,343.732,186.454,344.671,186.494z"/>
<path fill="none" stroke="#97AAE5" stroke-width="1.81" stroke-linecap="round" stroke-linejoin="round" stroke-miterlimit="10" d="
	M343.769,197.25l-32.3,12.413c-7.246-8.241-14.492-16.483-21.737-24.725c-0.638-0.724-1.309-1.474-2.203-1.837
	c-0.72-0.292-1.519-0.306-2.296-0.316c-1.992-0.025-3.985-0.05-5.978-0.074c2.701-1.211,5.402-2.421,8.103-3.631
	c1.173-0.526,2.395-1.062,3.681-1.033c1.282,0.029,2.477,0.619,3.624,1.195c3.413,1.718,6.826,3.435,10.24,5.152"/>
<path fill="none" stroke="#97AAE5" stroke-width="1.81" stroke-linecap="round" stroke-linejoin="round" stroke-miterlimit="10" d="
	M292.078,177.579c-0.891,2.118-1.932,4.172-3.111,6.143"/>
<path fill="none" stroke="#97AAE5" stroke-width="1.81" stroke-linecap="round" stroke-linejoin="round" stroke-miterlimit="10" d="
	M343.748,196.863c-15.778-2.535-31.678-4.313-47.626-5.326"/>
<path fill="none" stroke="#97AAE5" stroke-width="1.81" stroke-linecap="round" stroke-linejoin="round" stroke-miterlimit="10" d="
	M319.12,193.867c-2.529,4.824-3.414,10.491-6.646,14.876"/>
<path fill="none" stroke="#97AAE5" stroke-width="1.81" stroke-linecap="round" stroke-linejoin="round" stroke-miterlimit="10" d="
	M331.315,185.771c-3.863-2.265-7.726-4.529-11.589-6.795"/>
<path fill="none" stroke="#97AAE5" stroke-width="1.81" stroke-linecap="round" stroke-linejoin="round" stroke-miterlimit="10" d="
	M140.818,200.003c2.458-3.015,4.702-6.204,6.709-9.536l11.423,9.044c-2.705,2.943-5.685,5.635-8.887,8.028"/>
<path fill="none" stroke="#97AAE5" stroke-width="1.81" stroke-linecap="round" stroke-linejoin="round" stroke-miterlimit="10" d="
	M147.721,189.845c2.106-2.312,4.212-4.624,6.318-6.936c0.1-0.109,0.206-0.223,0.346-0.271c0.32-0.11,0.636,0.158,0.869,0.405
	l9.399,9.944c-1.914,2.208-3.983,4.282-6.186,6.204"/>
<path fill="none" stroke="#97AAE5" stroke-width="1.81" stroke-linecap="round" stroke-linejoin="round" stroke-miterlimit="10" d="
	M154.551,182.543c0.731-2.299,3.662-2.793,5.969-3.502c5.255-1.613,9.065-6.048,12.623-10.238
	c8.471-9.982,17.198-19.748,26.17-29.284c0.472-0.503,1.023-1.041,1.713-1.055c0.928-0.02,1.612,0.987,1.595,1.917
	c-0.016,0.929-0.524,1.768-1.023,2.552c-6.393,10.03-14.062,19.246-22.764,27.354c-4.12,3.838-8.689,7.774-10.116,13.221
	c-0.926,3.533-1.024,8.229-4.477,9.421"/>
<path fill="none" stroke="#97AAE5" stroke-width="1.81" stroke-linecap="round" stroke-linejoin="round" stroke-miterlimit="10" d="
	M140.474,200.448c-0.441,0.678-0.896,1.395-0.953,2.201c-0.057,0.807,0.441,1.714,1.244,1.812c0.479,0.058,0.938-0.172,1.365-0.395
	c1.596-0.834,3.192-1.669,4.786-2.503l-1.813,4.925c-0.071,0.195-0.144,0.412-0.065,0.605c0.193,0.473,0.906,0.241,1.317-0.063
	c0.897-0.661,1.794-1.323,2.691-1.985c-0.092,0.639-0.184,1.278-0.276,1.918c-0.027,0.185-0.018,0.432,0.162,0.487
	c0.18,0.056,0.152-0.361,0.023-0.225"/>
<path fill="none" stroke="#97AAE5" stroke-width="1.81" stroke-linecap="round" stroke-linejoin="round" stroke-miterlimit="10" d="
	M115.407,323.841c-0.181-0.371-0.327-0.791-0.227-1.192c0.109-0.431,0.475-0.741,0.821-1.021
	c7.863-6.375,15.249-13.339,22.076-20.812c2.465,0.552,4.409,2.897,4.495,5.421c-5.311,5.145-10.378,10.541-15.18,16.163
	c-1.42,1.664-2.944,4.492-5.227,5.035C119.636,328.038,116.469,326.028,115.407,323.841z"/>
<path fill="none" stroke="#97AAE5" stroke-width="1.81" stroke-linecap="round" stroke-linejoin="round" stroke-miterlimit="10" d="
	M142.731,305.164c10.595-9.894,25.245-15.109,34.414-26.336c2.524-3.091,4.648-7.042,3.728-10.924
	c-1.054-4.451-6.064-7.192-10.613-6.718c-4.549,0.475-8.496,3.522-11.214,7.201c-2.717,3.678-4.418,7.988-6.271,12.17
	c-1.754,3.955-3.671,7.838-5.743,11.637c-1.912,3.503-3.984,6.97-6.754,9.843"/>
<path fill="none" stroke="#97AAE5" stroke-width="1.81" stroke-linecap="round" stroke-linejoin="round" stroke-miterlimit="10" d="
	M170.86,276.013c2.653-3.593,5.097-7.43,6.363-11.713c0.343-1.158,0.384-2.773-0.752-3.187c-0.7-0.256-1.458,0.138-2.09,0.535
	c-7.707,4.849-13.615,12.076-18.75,19.594c-4.667,6.833-9.556,13.762-13.887,20.787c2.448-0.095,5.787-3.306,7.739-4.737
	c2.714-1.988,5.327-4.114,7.827-6.364C162.312,286.428,166.862,281.425,170.86,276.013z"/>
<path fill="none" stroke="#97AAE5" stroke-width="1.81" stroke-linecap="round" stroke-linejoin="round" stroke-miterlimit="10" d="
	M170.175,271.288c1.614-1.83,3.229-3.661,4.788-5.538c0.763-0.918,1.54-1.906,1.729-3.085c0.188-1.179-0.452-2.576-1.624-2.795
	c-0.527-0.098-1.066,0.05-1.573,0.22c-5.034,1.692-8.935,5.664-12.397,9.692c-7.132,8.299-13.29,17.433-18.317,27.152
	c-0.543,1.051-3.335,4.779-1.158,5.061c1.484,0.192,4.286-3.866,5.242-4.879c3.825-4.049,7.582-8.161,11.306-12.304
	C162.2,280.329,166.188,275.809,170.175,271.288z"/>
<path fill="none" stroke="#97AAE5" stroke-width="1.81" stroke-linecap="round" stroke-linejoin="round" stroke-miterlimit="10" d="
	M221.497,47.437c1.07-3.309,3.431-6.079,6.175-8.214c2.744-2.135,5.879-3.7,8.991-5.251"/>
<path fill="none" stroke="#97AAE5" stroke-width="1.81" stroke-linecap="round" stroke-linejoin="round" stroke-miterlimit="10" d="
	M249.131,116.401c-14.877-4.643-29.753-9.285-44.63-13.928c4.95-14.925,9.901-29.848,14.85-44.773
	c7.158,2.531,14.35,4.965,21.574,7.302c4.315,1.395,15.48,2.648,16.792,7.232C258.885,76.318,247.108,115.769,249.131,116.401z"/>
<path fill="none" stroke="#97AAE5" stroke-width="1.81" stroke-linecap="round" stroke-linejoin="round" stroke-miterlimit="10" d="
	M258.265,72.215c1.957-4.433,0.762-9.562-0.586-14.216c-3.164-10.93-7.678-22.509-17.403-28.417
	c-4.881-2.965-10.795-4.191-16.452-3.412c-1.139,0.156-2.294,0.402-3.27,1.01c-1.23,0.764-2.06,2.03-2.714,3.323
	c-4.297,8.499-2.33,18.788,0.876,27.756"/>
<path fill="none" stroke="#97AAE5" stroke-width="1.81" stroke-linecap="round" stroke-linejoin="round" stroke-miterlimit="10" d="
	M255.349,69.123c0.175-12.272-5.092-24.523-14.118-32.841c-3.542-3.263-7.898-6.029-12.711-6.208
	c-2.274-0.085-4.798,0.58-6.013,2.503c-0.831,1.315-0.894,2.955-0.933,4.51c-0.18,7.186-0.36,14.374-0.538,21.561"/>
<path fill="none" stroke="#97AAE5" stroke-width="1.81" stroke-linecap="round" stroke-linejoin="round" stroke-miterlimit="10" d="
	M222.097,58.289c2.35-4.514,4.755-9.104,8.356-12.698c3.345-3.338,7.66-5.694,12.276-6.702c0.716-0.158,1.823,0.1,1.623,0.805"/>
<path fill="none" stroke="#97AAE5" stroke-width="1.81" stroke-linecap="round" stroke-linejoin="round" stroke-miterlimit="10" d="
	M245.588,32.199c2.711-0.712,5.664,0.326,7.792,2.15c2.128,1.825,3.541,4.343,4.653,6.915c4.109,9.507,4.56,20.541,1.243,30.352"/>
<path fill="none" stroke="#97AAE5" stroke-width="1.81" stroke-linecap="round" stroke-linejoin="round" stroke-miterlimit="10" d="
	M241.097,79.558c-3.942-1.663-7.98-3.1-12.089-4.299c-0.441-0.129-0.932-0.252-1.347-0.05c-0.396,0.193-0.605,0.627-0.784,1.03
	c-1,2.247-2,4.495-2.999,6.742c4.448-1.424,9.4-1.218,13.715,0.569c1.193,0.494,2.502,1.355,2.511,2.647
	c0.006,0.998-0.837,1.841-1.782,2.164c-0.945,0.322-1.974,0.236-2.968,0.141c-3.879-0.371-8.102-0.75-11.376,1.363
	c-1.015,0.653-1.914,1.574-2.258,2.731c-0.344,1.156-0.01,2.562,0.994,3.231c1.434,0.955,3.318,0.107,4.93-0.499
	c1.521-0.573,3.13-0.912,4.752-1.002c0.82-0.047,1.788,0.045,2.222,0.744c0.758,1.217-0.896,2.55-2.306,2.804
	c-1.411,0.256-3.207,0.454-3.638,1.822c-0.271,0.863,0.224,1.819,0.948,2.362c0.725,0.542,1.633,0.763,2.514,0.971
	c2.407,0.568,5.211,1.054,7.127-0.508c1.512-1.232,1.938-3.37,1.881-5.319c-0.057-1.949-0.49-3.895-0.275-5.832
	c3.019,0.87,6.513-1.661,6.628-4.802C247.594,83.871,243.317,80.495,241.097,79.558z"/>
<path fill="none" stroke="#97AAE5" stroke-width="1.81" stroke-linecap="round" stroke-linejoin="round" stroke-miterlimit="10" d="
	M7.229,217.433c-2.236,7.412-4.345,14.862-6.323,22.348c13.128,4.406,26.327,8.598,39.592,12.574
	c1.444-1.517,2.423-3.426,3.119-5.402c0.871-2.478,1.322-5.08,1.768-7.667l1.872-10.834c0.037-0.215,0.073-0.446-0.013-0.646
	c-0.651-1.517-6.751-2.522-8.182-2.917c-3.503-0.967-7.019-1.889-10.545-2.763C26.736,221.684,7.375,216.935,7.229,217.433z"/>
<path fill="none" stroke="#97AAE5" stroke-width="1.81" stroke-linecap="round" stroke-linejoin="round" stroke-miterlimit="10" d="
	M47.074,227.944c-7.812,4.072-15.906,7.601-24.206,10.552c-0.274,0.097-0.573,0.195-0.851,0.108
	c-0.26-0.082-0.445-0.308-0.612-0.524c-5.006-6.433-9.577-13.203-13.673-20.249"/>
<path fill="none" stroke="#97AAE5" stroke-width="1.81" stroke-linecap="round" stroke-linejoin="round" stroke-miterlimit="10" d="
	M41.54,0.905c0,0-0.674,14.049-0.535,17.052c0.139,3.002-0.314,5.37,1.458,9.008c1.771,3.637,6.157,7.319,12.806,13.128
	S67.06,49.136,70.32,53.879c3.261,4.742,8.07,12.223,12.944,17.172c4.874,4.949,11.098,6.841,11.688,8.982
	c0.591,2.141-3.316,3.858-7.054,4.18c-3.737,0.321-10.383-5.92-12.525-7.557c-2.142-1.637-7.935-6.444-7.935-6.444
	s-1.658,2.407-0.622,6.227c1.036,3.82,5.489,18.592,8.133,25.397c2.646,6.803,6.383,21.144,7.622,25.782
	c1.24,4.638,3.177,8.956,0.698,9.765c-2.281,0.745-6.826-8.936-9.494-14.433c-2.667-5.498-8.362-22.091-8.809-23.194
	c-0.448-1.104-3.789-10.308-6.256-9.156c-2.467,1.154,2.577,26.082,2.92,28.861c0.344,2.777,3.152,24.931,3.392,27.267
	c0.228,2.221,1.685,7.217-0.788,8.004c-1.373,0.438-4.078-4.192-5.867-9.994c-1.789-5.803-8.331-28.99-9.043-31.503
	c-0.711-2.513-2.557-16.792-4.898-16.222c-2.341,0.571-1.128,17.106-1.484,23.358c-0.355,6.251-1.075,24.303-1.549,27.631
	c-0.475,3.328-2.63,3.48-3.82,2.122c-0.794-0.907-3.526-21.123-3.949-25.27c-0.423-4.145-3.331-31.589-6.041-31.377
	c-2.71,0.211-5.23,15.268-5.99,19.188c-0.761,3.92-1.163,8.625-3.545,8.428c-3.841-0.315-1.785-22.894-1.655-27.959
	c0.129-5.064,2.208-30.568,2.559-33.692c0.352-3.124,1.738-16.049,2.233-18.6c0.493-2.552,1.237-8.985,0.649-12.048
	c-0.588-3.065-7.627-21.618-7.627-21.618"/>
<rect x="-15.959" y="-298.041" fill="none" width="1280" height="1721"/>
</svg>
