<?xml version="1.0" encoding="utf-8"?>
<!-- Generator: Adobe Illustrator 24.0.1, SVG Export Plug-In . SVG Version: 6.00 Build 0)  -->
<svg version="1.1" id="Calque_1" xmlns="http://www.w3.org/2000/svg" xmlns:xlink="http://www.w3.org/1999/xlink" x="0px" y="0px"
	 viewBox="0 0 396.8 325.5" style="enable-background:new 0 0 396.8 325.5;" xml:space="preserve">
<style type="text/css">
	.st0{fill:none;stroke:#0B3FC1;stroke-width:9;stroke-linecap:round;stroke-linejoin:round;stroke-miterlimit:10;}
	.st1{fill:#0B3FC1;}
	.st2{font-family:'AmaticSC-Bold';}
	.st3{font-size:179.9358px;}
</style>
<path class="st0" d="M61.7,26.7C26.1,43,13.1,93.2,33.1,126.9s66.4,47,103,33.1c22.7-8.6,42.5-27.6,47.4-51.4
	C198,38.8,117.8,1.1,61.7,26.7z M152,102c-3,14.3-14.8,25.8-28.5,31c-22.1,8.4-50,0.3-62-19.9c-12.1-20.3-4.2-50.5,17.2-60.3
	C112.5,37.3,160.8,60,152,102z"/>
<path class="st0" d="M196.3,159.6c1.4-1.1,3-2.3,4.8-2.3c2.2-0.1,4.1,1.5,5.8,3c43.9,39.6,82.9,84.7,115.7,134
	c-6.6,4.6-13.2,9.3-19.8,13.9c-5.3,3.7-74.9-65.6-82.1-72.7c-13.2-12.9-26.5-26-38.9-39.8C165.1,176.9,179.4,172.8,196.3,159.6z"/>
<path class="st0" d="M158.5,146.2c7.1,9.2,16.3,16.7,26.7,21.9"/>
<text transform="matrix(1 0 0 1 193.2867 146.3621)" class="st1 st2 st3">ups!</text>
</svg>
