<?xml version="1.0" encoding="utf-8"?>
<!-- Generator: Adobe Illustrator 16.0.0, SVG Export Plug-In . SVG Version: 6.00 Build 0)  -->
<!DOCTYPE svg PUBLIC "-//W3C//DTD SVG 1.1//EN" "http://www.w3.org/Graphics/SVG/1.1/DTD/svg11.dtd">
<svg version="1.1" id="Calque_1" xmlns="http://www.w3.org/2000/svg" xmlns:xlink="http://www.w3.org/1999/xlink" x="0px" y="0px"
	 width="294.015px" height="283.566px" viewBox="0 0 294.015 283.566" enable-background="new 0 0 294.015 283.566"
	 xml:space="preserve">
<path fill="none" stroke="#0B3FC0" stroke-width="2" stroke-miterlimit="10" d="M97.723,7.708
	C75.676,14.052,54.368,24.721,38.76,41.537C16.892,65.097,8.417,97.977,3.725,129.778c-2.399,16.256-4.012,32.859-1.346,49.073
	c5.204,31.646,26.758,59.145,53.889,76.249c27.13,17.104,59.366,24.678,91.364,26.861c17.249,1.177,34.732,0.852,51.603-2.936
	c13.393-3.006,26.327-8.205,37.852-15.659c22.235-14.382,38.639-36.957,47.465-61.924c8.826-24.968,10.333-52.201,6.445-78.396
	c-3.793-25.558-12.83-50.657-28.509-71.192C225.643,3.595,153.421-8.319,97.723,7.708z"/>
</svg>
