<?xml version="1.0" encoding="utf-8"?>
<!-- Generator: Adobe Illustrator 16.0.0, SVG Export Plug-In . SVG Version: 6.00 Build 0)  -->
<!DOCTYPE svg PUBLIC "-//W3C//DTD SVG 1.1//EN" "http://www.w3.org/Graphics/SVG/1.1/DTD/svg11.dtd">
<svg version="1.1" id="Calque_1" xmlns="http://www.w3.org/2000/svg" xmlns:xlink="http://www.w3.org/1999/xlink" x="0px" y="0px"
	 width="147.319px" height="72.559px" viewBox="0 0 147.319 72.559" enable-background="new 0 0 147.319 72.559"
	 xml:space="preserve">
<path fill="none" stroke="#0B3FC1" stroke-width="1.81" stroke-linecap="round" stroke-linejoin="round" stroke-miterlimit="10" d="
	M33.036,42.385C25.929,30.298,18.821,18.211,11.713,6.125c3.621-0.711,7.428,0.389,10.541,2.37c3.113,1.982,5.615,4.786,7.864,7.71
	c2.859,3.719,5.406,7.747,6.874,12.202c1.466,4.457,1.794,9.389,0.261,13.824c5.504-0.929,11.137-1.847,15.83,1.174
	c2.665,1.715,5.335,6.506,5.244,9.672c-0.086,3.016-2.456,5.468-4.952,7.162c-6.009-4.58-12.018-9.158-18.027-13.736
	c2.557,6.777,5.115,13.554,7.672,20.33c0.169,0.447,0.339,0.936,0.19,1.389c-0.148,0.45-0.57,0.743-0.972,0.993
	c-2.385,1.478-5.118,2.612-7.917,2.419c-5.453-0.377-9.495-5.961-9.63-11.426c-0.134-5.465,2.779-10.584,6.408-14.672
	c-3.043,1.268-6.565,0.979-9.657-0.163c-3.092-1.142-5.823-3.076-8.427-5.097c-2.435-1.892-5.039-5.903-6.761-8.459
	c-2.106-3.124-5.728-14.261-5.316-18.119C0.938,13.696,30.981,38.892,33.036,42.385z"/>
<path fill="none" stroke="#0B3FC1" stroke-width="1.81" stroke-linecap="round" stroke-linejoin="round" stroke-miterlimit="10" d="
	M51.952,54.446c0.156,0.144,0.375,0.296,0.559,0.19c0.085-0.047,0.134-0.14,0.177-0.228c1.428-2.959,0.364-6.89-2.36-8.725
	c-1.327-0.894-2.975-1.235-4.556-1.07c-0.783,0.082-4.248,0.901-4.163,2.039c0.055,0.756,4.426,3.004,5.166,3.547
	C48.575,51.521,50.304,52.939,51.952,54.446z"/>
<path fill="none" stroke="#0B3FC1" stroke-width="1.81" stroke-linecap="round" stroke-linejoin="round" stroke-miterlimit="10" d="
	M37.63,67.045c-1.977,0.263-4.056-0.216-5.68-1.374c-1.623-1.158-2.761-2.997-3.003-4.979c-0.241-1.981,0.384-3.961,1.075-5.834
	c0.257-0.695,0.53-1.398,0.988-1.98c1.007-1.281,1.586-1.082,2.04,0.227c0.538,1.552,0.931,3.168,1.425,4.734
	C35.449,60.935,36.502,64.003,37.63,67.045z"/>
<path fill="none" stroke="#0B3FC1" stroke-width="1.81" stroke-linecap="round" stroke-linejoin="round" stroke-miterlimit="10" d="
	M143.602,10.754c-0.339-0.236-0.731-0.446-1.144-0.409c-0.441,0.04-0.805,0.354-1.135,0.651
	c-7.519,6.779-15.545,12.993-23.988,18.576c0.162,2.521,2.178,4.806,4.658,5.284c5.906-4.448,12.023-8.616,18.323-12.486
	c1.863-1.145,4.894-2.212,5.785-4.383C147.089,15.583,145.597,12.144,143.602,10.754z"/>
<path fill="none" stroke="#0B3FC1" stroke-width="1.81" stroke-linecap="round" stroke-linejoin="round" stroke-miterlimit="10" d="
	M120.907,34.846c-11.418,8.931-18.847,22.593-31.361,29.907c-3.444,2.014-7.678,3.497-11.37,1.986
	c-4.233-1.733-6.163-7.107-4.988-11.527c1.176-4.42,4.799-7.846,8.855-9.96c4.056-2.113,8.577-3.123,12.995-4.306
	c4.181-1.119,8.313-2.408,12.389-3.867c3.758-1.344,7.503-2.852,10.771-5.143"/>
<path fill="none" stroke="#0B3FC1" stroke-width="1.81" stroke-linecap="round" stroke-linejoin="round" stroke-miterlimit="10" d="
	M87.742,58.107c-3.961,2.062-8.131,3.882-12.56,4.468c-1.197,0.158-2.798-0.052-3.031-1.237c-0.144-0.732,0.363-1.42,0.854-1.981
	c5.986-6.86,14.042-11.575,22.267-15.481c7.475-3.549,15.08-7.303,22.69-10.49c-0.474,2.404-4.163,5.203-5.88,6.91
	c-2.386,2.373-4.891,4.623-7.503,6.744C99.358,51.28,93.709,55,87.742,58.107z"/>
<path fill="none" stroke="#0B3FC1" stroke-width="1.81" stroke-linecap="round" stroke-linejoin="round" stroke-miterlimit="10" d="
	M83.181,56.696c-2.059,1.312-4.118,2.622-6.215,3.871c-1.025,0.61-2.122,1.226-3.315,1.228c-1.194,0.004-2.476-0.845-2.51-2.037
	c-0.014-0.537,0.215-1.045,0.462-1.52c2.453-4.711,6.982-7.947,11.499-10.742c9.306-5.757,19.286-10.423,29.667-13.878
	c1.123-0.374,5.239-2.553,5.18-0.359c-0.041,1.496-4.484,3.633-5.634,4.42c-4.594,3.15-9.239,6.224-13.909,9.259
	C93.35,50.222,88.265,53.458,83.181,56.696z"/>
<path fill="none" stroke="#0B3FC1" stroke-width="1.81" stroke-linecap="round" stroke-linejoin="round" stroke-miterlimit="10" d="
	M90.804,16.807c-1.545-4.893-5.923-8.6-10.846-10.051C75.036,5.305,69.669,5.917,64.86,7.704
	c-5.406,2.009-10.398,5.66-12.978,10.818c1.757,2.456,3.666,4.804,6.174,6.484c2.638,1.766,5.69,3.044,8.863,3.118
	c2.321,0.055,4.609-0.532,6.816-1.251C79.969,24.841,86.061,21.333,90.804,16.807z"/>
<path fill="none" stroke="#0B3FC1" stroke-width="1.81" stroke-linecap="round" stroke-linejoin="round" stroke-miterlimit="10" d="
	M63.891,10.658c-1.282,2.336-1.632,5.093-1.446,7.75c0.173,2.457,0.858,5.011,2.618,6.733c1.583,1.549,3.887,2.233,6.099,2.117
	c2.211-0.117,4.333-0.971,6.212-2.145c1.373-0.858,2.69-1.962,3.281-3.471c0.531-1.365,0.405-2.887,0.229-4.342
	c-0.261-2.14-0.618-4.296-1.478-6.273C76.342,3.977,67.494,4.098,63.891,10.658z"/>
<path fill="none" stroke="#0B3FC1" stroke-width="1.81" stroke-linecap="round" stroke-linejoin="round" stroke-miterlimit="10" d="
	M67.185,15.916c-0.469,2.06,0.785,4.332,2.727,5.165c0.517,0.222,1.08,0.353,1.642,0.323c0.878-0.046,1.689-0.475,2.419-0.964
	c0.797-0.532,1.565-1.181,1.945-2.06c0.362-0.837,0.327-1.82-0.025-2.661c-0.233-0.559-0.597-1.054-0.981-1.522
	C72.681,11.492,68.032,12.19,67.185,15.916z"/>
<path fill="none" stroke="#0B3FC1" stroke-width="1.81" stroke-linecap="round" stroke-linejoin="round" stroke-miterlimit="10" d="
	M51.38,17.925c-0.769-2.792-1.358-5.633-1.763-8.5"/>
<path fill="none" stroke="#0B3FC1" stroke-width="1.81" stroke-linecap="round" stroke-linejoin="round" stroke-miterlimit="10" d="
	M55.183,13.886c-0.159-1.764-0.364-3.523-0.615-5.276"/>
<path fill="none" stroke="#0B3FC1" stroke-width="1.81" stroke-linecap="round" stroke-linejoin="round" stroke-miterlimit="10" d="
	M60.713,9.676c0.05-1.745,0.189-3.489,0.418-5.221"/>
<path fill="none" stroke="#0B3FC1" stroke-width="1.81" stroke-linecap="round" stroke-linejoin="round" stroke-miterlimit="10" d="
	M67.365,6.658c-0.18-1.647-0.105-3.321,0.221-4.945"/>
<path fill="none" stroke="#0B3FC1" stroke-width="1.81" stroke-linecap="round" stroke-linejoin="round" stroke-miterlimit="10" d="
	M72.626,5.69c0.415-1.631,0.948-3.231,1.595-4.785"/>
<path fill="none" stroke="#0B3FC1" stroke-width="1.81" stroke-linecap="round" stroke-linejoin="round" stroke-miterlimit="10" d="
	M80.138,6.353c0.477-1.286,1.185-2.486,2.08-3.526"/>
<path fill="none" stroke="#0B3FC1" stroke-width="1.81" stroke-linecap="round" stroke-linejoin="round" stroke-miterlimit="10" d="
	M86.23,9.593c1.149-1.867,2.423-3.657,3.81-5.355"/>
<path fill="none" stroke="#0B3FC1" stroke-width="1.81" stroke-linecap="round" stroke-linejoin="round" stroke-miterlimit="10" d="
	M88.554,13.052c1.123-1.07,2.199-2.188,3.229-3.35"/>
<path fill="none" stroke="#0B3FC1" stroke-width="1.81" stroke-linecap="round" stroke-linejoin="round" stroke-miterlimit="10" d="
	M91.134,16.503c0.781-0.668,1.607-1.284,2.47-1.844"/>
</svg>
