<?xml version="1.0" encoding="utf-8"?>
<!-- Generator: Adobe Illustrator 16.0.0, SVG Export Plug-In . SVG Version: 6.00 Build 0)  -->
<!DOCTYPE svg PUBLIC "-//W3C//DTD SVG 1.1//EN" "http://www.w3.org/Graphics/SVG/1.1/DTD/svg11.dtd">
<svg version="1.1" id="Calque_1" xmlns="http://www.w3.org/2000/svg" xmlns:xlink="http://www.w3.org/1999/xlink" x="0px" y="0px"
	 width="46.693px" height="72.196px" viewBox="0 0 46.693 72.196" enable-background="new 0 0 46.693 72.196" xml:space="preserve">
<path fill="none" stroke="#FFFFFF" stroke-width="1.628" stroke-miterlimit="10" d="M29.908,24.082
	c1.783,15.362,2.62,30.835,2.506,46.302c-4.391,0.332-8.782,0.666-13.173,0.998c-1.456,0.11-1.716-28.031-1.6-30.596
	c0.193-4.193-0.337-10.694,1.374-14.566C20.522,22.809,26.621,24.153,29.908,24.082z"/>
<path fill="none" stroke="#FFFFFF" stroke-width="1.628" stroke-miterlimit="10" d="M25.648,7.61
	c2.273-3.872,6.486-6.659,10.975-6.792c0.767-0.022,1.545,0.03,2.272,0.268c2.964,0.967,4.173,4.799,3.267,7.784
	c-0.906,2.983-3.318,5.242-5.744,7.2c-2.606,2.103-9.722,9.489-12.117,5.446C22.094,17.792,23.631,11.042,25.648,7.61z"/>
<path fill="none" stroke="#FFFFFF" stroke-width="1.628" stroke-miterlimit="10" d="M29.917,26.459c4.235-0.1,8.472-0.2,12.706-0.3
	c0.302,14.165,1.355,28.314,3.154,42.365c-4.311,0.33-8.623,0.656-12.933,0.984"/>
<path fill="none" stroke="#FFFFFF" stroke-width="1.628" stroke-miterlimit="10" d="M19.4,25.924
	c-5.549,1.849-12.814,0.381-18.55,1.427c0.69,13.104,1.193,30.435,2.18,43.519c4.721-0.227,11.649-0.477,16.37-0.713"/>
<path fill="none" stroke="#FFFFFF" stroke-width="1.628" stroke-miterlimit="10" d="M32.104,7.1
	c0.775-0.519,1.654-0.949,2.589-0.952c0.933-0.002,1.915,0.523,2.205,1.41c0.356,1.092-0.397,2.211-1.142,3.085
	c-1.311,1.54-9.221,8.146-9.221,8.146C23.921,16.667,30.297,8.308,32.104,7.1z"/>
<path fill="none" stroke="#FFFFFF" stroke-width="1.628" stroke-miterlimit="10" d="M17.115,10.095
	c-1.594-2.596-3.547-5.235-6.422-6.239C9.986,3.609,9.197,3.473,8.498,3.741C7.483,4.129,6.946,5.25,6.736,6.317
	c-0.46,2.347,0.193,4.768,1.046,7.004c0.805,2.113,1.792,4.157,2.945,6.102c0.564,0.949,1.178,1.889,2.008,2.617
	c1.097,0.965,2.502,1.503,3.909,1.894C27.658,26.991,19.9,14.632,17.115,10.095z"/>
<path fill="none" stroke="#FFFFFF" stroke-width="1.628" stroke-miterlimit="10" d="M15.938,12.809
	c-0.513-0.823-1.103-1.614-1.858-2.223c-0.756-0.609-1.695-1.027-2.665-1.028c-0.154,0-0.311,0.011-0.451,0.073
	c-0.558,0.247-0.499,1.071-0.228,1.618c0.339,0.687,0.852,1.269,1.36,1.843c1.215,1.373,2.431,2.747,3.646,4.121
	c0.535,0.604,1.08,1.224,1.748,1.687c1.158,0.805,0.761-0.362,0.557-1.155C17.601,16.005,16.888,14.333,15.938,12.809z"/>
<path fill="none" stroke="#FFFFFF" stroke-width="1.628" stroke-miterlimit="10" d="M1.652,45.672
	c5.298-0.246,10.596-0.492,15.894-0.739"/>
<path fill="none" stroke="#FFFFFF" stroke-width="1.628" stroke-miterlimit="10" d="M1.884,54.084
	c5.219,0.142,10.441,0.166,15.662,0.072"/>
<path fill="none" stroke="#FFFFFF" stroke-width="1.628" stroke-miterlimit="10" d="M31.78,45.405
	c3.479,0.178,8.397,0.316,11.877,0.494"/>
<line fill="none" stroke="#FFFFFF" stroke-width="1.628" stroke-miterlimit="10" x1="32.254" y1="54.161" x2="43.876" y2="53.394"/>
</svg>
