<?xml version="1.0" encoding="utf-8"?>
<!-- Generator: Adobe Illustrator 16.0.0, SVG Export Plug-In . SVG Version: 6.00 Build 0)  -->
<!DOCTYPE svg PUBLIC "-//W3C//DTD SVG 1.1//EN" "http://www.w3.org/Graphics/SVG/1.1/DTD/svg11.dtd">
<svg version="1.1" id="Calque_1" xmlns="http://www.w3.org/2000/svg" xmlns:xlink="http://www.w3.org/1999/xlink" x="0px" y="0px"
	 width="26.267px" height="30.257px" viewBox="0 0 26.267 30.257" enable-background="new 0 0 26.267 30.257" xml:space="preserve">
<path fill="none" stroke="#FFFFFF" stroke-width="2" stroke-linecap="round" stroke-linejoin="round" stroke-miterlimit="10" d="
	M18.438,1.312c1.479-0.002,3.098,0.043,4.224,1.004c1.195,1.021,1.451,2.74,1.609,4.304c0.519,5.137,0.848,10.292,0.985,15.452
	c0.022,0.84,0.035,1.702-0.244,2.493c-0.402,1.137-1.365,1.987-2.392,2.619c-4.034,2.482-9.116,2.199-13.836,1.836
	c-1.764-0.136-3.65-0.32-5.015-1.444c-1.648-1.356-2.064-3.679-2.29-5.802C0.947,16.776,0.858,11.732,1.211,6.72
	c0.063-0.882,0.145-1.788,0.541-2.579C4.025-0.395,14.502,1.318,18.438,1.312z"/>
<path fill="none" stroke="#FFFFFF" stroke-width="2" stroke-linecap="round" stroke-linejoin="round" stroke-miterlimit="10" d="
	M8.536,15.436c-0.183,0.608-0.31,1.252-0.195,1.877c0.085,0.467,0.3,0.902,0.565,1.297c1.406,2.096,4.335,3.018,6.688,2.104
	c0.487-0.189,0.954-0.452,1.315-0.83c0.528-0.556,0.791-1.32,0.881-2.081C18.528,11.599,10.51,8.837,8.536,15.436z"/>
<path fill="none" stroke="#FFFFFF" stroke-width="2" stroke-linecap="round" stroke-linejoin="round" stroke-miterlimit="10" d="
	M5.319,6.371C5.238,6.729,5.156,7.089,5.075,7.447c0.339,0,0.679,0,1.018,0.001c0.104-0.354,0.153-0.773-0.084-1.057
	C5.774,6.108,5.177,6.208,5.187,6.575"/>
</svg>
