<?xml version="1.0" encoding="utf-8"?>
<!-- Generator: Adobe Illustrator 16.0.0, SVG Export Plug-In . SVG Version: 6.00 Build 0)  -->
<!DOCTYPE svg PUBLIC "-//W3C//DTD SVG 1.1//EN" "http://www.w3.org/Graphics/SVG/1.1/DTD/svg11.dtd">
<svg version="1.1" id="Calque_1" xmlns="http://www.w3.org/2000/svg" xmlns:xlink="http://www.w3.org/1999/xlink" x="0px" y="0px"
	 width="34.331px" height="34.51px" viewBox="0 0 34.331 34.51" enable-background="new 0 0 34.331 34.51" xml:space="preserve">
<path fill="none" stroke="#FFFFFF" stroke-width="2" stroke-linecap="round" stroke-linejoin="round" stroke-miterlimit="10" d="
	M15.371,23.962c0.996-3.365,1.863-6.767,2.602-10.197c-0.27,0.048-0.392,0.359-0.458,0.625c-0.234,0.941-0.391,1.902-0.467,2.869
	c-0.073,0.939,0.004,2.039,0.772,2.582c0.358,0.253,0.812,0.335,1.251,0.33c1.061-0.012,2.086-0.507,2.835-1.257
	s1.232-1.74,1.475-2.772c0.22-0.943,0.244-1.955-0.086-2.867c-0.413-1.137-1.362-2.038-2.471-2.521
	c-1.109-0.482-2.365-0.568-3.561-0.379c-1.469,0.231-2.901,0.896-3.873,2.021s-1.423,2.738-0.98,4.157
	c0.251,0.809,0.842,1.566,1.664,1.764"/>
<path fill="none" stroke="#FFFFFF" stroke-width="2" stroke-linecap="round" stroke-linejoin="round" stroke-miterlimit="10" d="
	M4.261,8.335c-1.929,2.616-3.07,5.804-3.239,9.05c-0.104,1.998,0.159,4.034,0.938,5.876c1.049,2.48,2.966,4.488,4.994,6.26
	c1.322,1.156,2.731,2.252,4.352,2.931c1.516,0.635,3.165,0.885,4.804,0.997c2.243,0.151,4.531,0.05,6.681-0.613
	c3.185-0.983,5.938-3.193,7.76-5.985c1.82-2.791,2.729-6.135,2.778-9.467c0.023-1.627-0.155-3.272-0.709-4.803
	c-0.49-1.354-1.261-2.585-2.039-3.797c-0.775-1.206-1.569-2.411-2.56-3.449c-1.258-1.317-2.799-2.33-4.389-3.217
	c-1.261-0.704-7.096-1.368-8.299-1.023C12.57,1.886,9.912,3.13,7.635,4.899C6.364,5.887,5.217,7.038,4.261,8.335z"/>
</svg>
