<?xml version="1.0" encoding="utf-8"?>
<!-- Generator: Adobe Illustrator 16.0.0, SVG Export Plug-In . SVG Version: 6.00 Build 0)  -->
<!DOCTYPE svg PUBLIC "-//W3C//DTD SVG 1.1//EN" "http://www.w3.org/Graphics/SVG/1.1/DTD/svg11.dtd">
<svg version="1.1" id="Calque_1" xmlns="http://www.w3.org/2000/svg" xmlns:xlink="http://www.w3.org/1999/xlink" x="0px" y="0px"
	 width="34.331px" height="34.509px" viewBox="0 0 34.331 34.509" enable-background="new 0 0 34.331 34.509" xml:space="preserve">
<path fill="#FFFFFF" d="M4.261,8.335c-1.929,2.615-3.07,5.804-3.239,9.05c-0.104,1.998,0.159,4.033,0.938,5.876
	c1.049,2.48,2.967,4.488,4.994,6.261c1.323,1.154,2.732,2.25,4.353,2.929c1.515,0.636,3.164,0.886,4.803,0.997
	c2.244,0.152,4.531,0.05,6.681-0.613c3.185-0.982,5.938-3.191,7.76-5.982c1.821-2.793,2.729-6.137,2.778-9.469
	c0.023-1.627-0.155-3.273-0.709-4.804c-0.49-1.353-1.261-2.585-2.039-3.796c-0.775-1.206-1.569-2.412-2.56-3.449
	c-1.257-1.317-2.799-2.33-4.389-3.218c-1.261-0.703-7.096-1.367-8.298-1.022C12.57,1.886,9.912,3.13,7.636,4.898
	C6.364,5.887,5.218,7.038,4.261,8.335"/>
<path fill="none" stroke="#0B3FC1" stroke-width="2" stroke-linecap="round" stroke-linejoin="round" stroke-miterlimit="10" d="
	M4.261,8.335c-1.929,2.615-3.07,5.804-3.239,9.05c-0.104,1.998,0.159,4.033,0.938,5.876c1.049,2.48,2.967,4.488,4.994,6.261
	c1.323,1.154,2.732,2.25,4.353,2.929c1.515,0.636,3.164,0.886,4.803,0.997c2.244,0.152,4.531,0.05,6.681-0.613
	c3.185-0.982,5.938-3.191,7.76-5.982c1.821-2.793,2.729-6.137,2.778-9.469c0.023-1.627-0.155-3.273-0.709-4.804
	c-0.49-1.353-1.261-2.585-2.039-3.796c-0.775-1.206-1.569-2.412-2.56-3.449c-1.257-1.317-2.799-2.33-4.389-3.218
	c-1.261-0.703-7.096-1.367-8.298-1.022C12.57,1.886,9.912,3.13,7.636,4.898C6.364,5.887,5.218,7.038,4.261,8.335z"/>
<path fill="none" stroke="#0B3FC1" stroke-width="2" stroke-linecap="round" stroke-linejoin="round" stroke-miterlimit="10" d="
	M15.372,23.962c0.995-3.364,1.863-6.767,2.601-10.197c-0.27,0.048-0.392,0.359-0.457,0.625c-0.235,0.941-0.392,1.902-0.468,2.869
	c-0.073,0.938,0.004,2.039,0.772,2.582c0.358,0.253,0.813,0.335,1.252,0.33c1.06-0.013,2.085-0.508,2.834-1.258
	s1.232-1.739,1.475-2.77c0.221-0.945,0.245-1.956-0.086-2.868c-0.412-1.138-1.361-2.04-2.471-2.522
	c-1.109-0.482-2.365-0.568-3.561-0.379c-1.469,0.232-2.901,0.897-3.873,2.022s-1.423,2.737-0.98,4.157
	c0.252,0.808,0.842,1.566,1.664,1.764"/>
</svg>
