<?xml version="1.0" encoding="utf-8"?>
<!-- Generator: Adobe Illustrator 16.0.0, SVG Export Plug-In . SVG Version: 6.00 Build 0)  -->
<!DOCTYPE svg PUBLIC "-//W3C//DTD SVG 1.1//EN" "http://www.w3.org/Graphics/SVG/1.1/DTD/svg11.dtd">
<svg version="1.1" id="Calque_1" xmlns="http://www.w3.org/2000/svg" xmlns:xlink="http://www.w3.org/1999/xlink" x="0px" y="0px"
	 width="65.016px" height="56.249px" viewBox="0 0 65.016 56.249" enable-background="new 0 0 65.016 56.249" xml:space="preserve">
<path fill="none" stroke="#0B3FC0" stroke-linecap="round" stroke-linejoin="round" stroke-miterlimit="10" d="M10.314,55.749
	c0,0-0.241-5.045-0.191-6.123c0.049-1.078-0.114-1.928,0.523-3.233c0.636-1.308,2.211-2.629,4.599-4.715
	c2.387-2.087,4.234-3.248,5.405-4.951s2.897-4.39,4.647-6.166c1.75-1.777,3.986-2.458,4.198-3.226
	c0.212-0.769-1.191-1.386-2.534-1.501c-1.341-0.115-3.728,2.126-4.497,2.714c-0.769,0.587-2.849,2.313-2.849,2.313
	s-0.596-0.864-0.224-2.236s1.971-6.676,2.921-9.119c0.949-2.444,2.292-7.594,2.736-9.259c0.446-1.665,1.142-3.216,0.251-3.507
	c-0.819-0.267-2.451,3.209-3.409,5.184c-0.958,1.973-3.003,7.932-3.163,8.328c-0.161,0.396-1.361,3.702-2.247,3.288
	c-0.886-0.414,0.926-9.366,1.049-10.363c0.123-0.998,1.132-8.953,1.218-9.792c0.082-0.798,0.605-2.592-0.283-2.875
	C17.971,0.353,17,2.016,16.357,4.1c-0.643,2.083-2.991,10.41-3.247,11.312s-0.918,6.029-1.759,5.825
	c-0.841-0.205-0.405-6.142-0.533-8.387c-0.128-2.246-0.386-8.728-0.557-9.923c-0.17-1.195-0.944-1.249-1.371-0.762
	C8.605,2.491,7.624,9.75,7.472,11.239c-0.152,1.489-1.196,11.344-2.17,11.268c-0.972-0.075-1.878-5.483-2.15-6.89
	c-0.274-1.408-0.418-3.097-1.274-3.027c-1.378,0.113-0.64,8.221-0.594,10.04c0.047,1.818,0.793,10.978,0.92,12.099
	c0.126,1.123,0.624,5.764,0.8,6.68c0.178,0.917,0.446,3.227,0.234,4.326C3.027,46.835,0.5,53.497,0.5,53.497"/>
<path fill="none" stroke="#0B3FC0" stroke-linecap="round" stroke-linejoin="round" stroke-miterlimit="10" d="M54.701,55.749
	c0,0,0.242-5.045,0.192-6.123s0.112-1.928-0.523-3.233c-0.636-1.308-2.211-2.629-4.599-4.715c-2.388-2.087-4.234-3.248-5.405-4.951
	s-2.896-4.39-4.646-6.166c-1.75-1.777-3.986-2.458-4.199-3.226c-0.213-0.769,1.191-1.386,2.533-1.501
	c1.342-0.115,3.729,2.126,4.498,2.714c0.77,0.587,2.85,2.313,2.85,2.313s0.596-0.864,0.224-2.236s-1.971-6.676-2.921-9.119
	c-0.95-2.444-2.292-7.594-2.736-9.259c-0.445-1.665-1.142-3.216-0.25-3.507c0.818-0.267,2.45,3.209,3.408,5.184
	c0.957,1.973,3.003,7.932,3.163,8.328c0.161,0.396,1.361,3.702,2.247,3.288s-0.926-9.366-1.049-10.363
	c-0.123-0.998-1.132-8.953-1.219-9.792c-0.081-0.798-0.604-2.592,0.283-2.875c0.493-0.157,1.465,1.506,2.107,3.59
	c0.642,2.083,2.991,10.41,3.247,11.312c0.255,0.902,0.918,6.029,1.759,5.825c0.841-0.205,0.405-6.142,0.533-8.387
	c0.127-2.246,0.386-8.728,0.556-9.923c0.171-1.195,0.945-1.249,1.372-0.762c0.285,0.326,1.267,7.585,1.418,9.074
	c0.152,1.489,1.196,11.344,2.169,11.268c0.974-0.075,1.878-5.483,2.151-6.89c0.273-1.408,0.418-3.097,1.273-3.027
	c1.379,0.113,0.641,8.221,0.594,10.04c-0.046,1.818-0.793,10.978-0.919,12.099c-0.126,1.123-0.624,5.764-0.802,6.68
	c-0.177,0.917-0.444,3.227-0.233,4.326c0.212,1.101,2.739,7.763,2.739,7.763"/>
</svg>
