<?xml version="1.0" encoding="utf-8"?>
<!-- Generator: Adobe Illustrator 16.0.0, SVG Export Plug-In . SVG Version: 6.00 Build 0)  -->
<!DOCTYPE svg PUBLIC "-//W3C//DTD SVG 1.1//EN" "http://www.w3.org/Graphics/SVG/1.1/DTD/svg11.dtd">
<svg version="1.1" id="Calque_1" xmlns="http://www.w3.org/2000/svg" xmlns:xlink="http://www.w3.org/1999/xlink" x="0px" y="0px"
	 width="31.052px" height="32.926px" viewBox="0 0 31.052 32.926" enable-background="new 0 0 31.052 32.926" xml:space="preserve">
<path fill="none" stroke="#0B3FC0" stroke-miterlimit="10" d="M14.958,0.555c-1.351,0.122-2.656,0.565-3.886,1.141
	C6.555,3.809,2.949,7.82,1.387,12.557c-1.564,4.737-1.045,10.133,1.445,14.454c0.919,1.597,2.129,3.077,3.729,3.991
	c1.253,0.717,2.689,1.054,4.122,1.239c2.421,0.316,4.894,0.225,7.285-0.269c1.849-0.383,3.664-1.013,5.245-2.044
	c2.516-1.645,4.303-4.219,5.557-6.95c0.77-1.68,1.365-3.45,1.633-5.279C31.712,8.735,24.299-0.286,14.958,0.555z"/>
</svg>
