<?xml version="1.0" encoding="utf-8"?>
<!-- Generator: Adobe Illustrator 16.0.0, SVG Export Plug-In . SVG Version: 6.00 Build 0)  -->
<!DOCTYPE svg PUBLIC "-//W3C//DTD SVG 1.1//EN" "http://www.w3.org/Graphics/SVG/1.1/DTD/svg11.dtd">
<svg version="1.1" id="Calque_1" xmlns="http://www.w3.org/2000/svg" xmlns:xlink="http://www.w3.org/1999/xlink" x="0px" y="0px"
	 width="106.813px" height="92.644px" viewBox="0 0 106.813 92.644" enable-background="new 0 0 106.813 92.644"
	 xml:space="preserve">
<path fill="none" stroke="#0B3FC1" stroke-width="1.81" stroke-linecap="round" stroke-linejoin="round" stroke-miterlimit="10" d="
	M89.177,13.34c1.344,3.909,2.688,7.818,4.03,11.728c-4.832-0.929-9.564,2.067-10.962,7.352s0.932,12.447,5.353,15.691
	c4.421,3.246,10.316,1.718,12.011-3.385c2.1,4.367,4.199,8.733,6.299,13.1c-29.764,10.688-59.306,21.994-88.61,33.912
	c-1.39-3.437-2.777-6.875-4.166-10.313c3.132-1.746,6.38-3.61,8.26-7.069c1.879-3.461,1.881-9.03-1.006-12.408
	c-3.93-4.596-9.657-2.243-13.768,0.434C5.643,59.12,0.6,51.332,0.919,48.36c0.41-3.802,6.515-4.476,9.182-5.558
	c8.747-3.548,17.526-7.011,26.338-10.389C40.767,30.754,89.066,13.015,89.177,13.34z"/>
<path fill="none" stroke="#0B3FC1" stroke-width="1.81" stroke-linecap="round" stroke-linejoin="round" stroke-miterlimit="10" d="
	M35.11,74.227c15.871-6.438,31.741-12.875,47.612-19.312c-2.716-8.709-5.983-17.265-9.763-25.55
	c-0.29-0.636-0.643-1.334-1.191-1.583c-0.432-0.196-0.867-0.053-1.263,0.102c-3.709,1.458-6.984,3.903-10.354,6.11
	C50.794,40.12,40.81,43.475,30.354,46.84c-5.179,1.667-5.693,2.63-2.828,9.218C28.178,57.557,35.401,74.109,35.11,74.227z"/>
<path fill="#DAE1F6" d="M39.566,8.849c-6.871,6.773-8.836,18.558-3.203,26.392c4.42,6.147,12.538,8.895,20.083,8.269
	c9.164-0.761,18.063-6.49,21.419-15.052c3.357-8.568-0.191-20.477-8.362-25.263C60.773-1.921,46.286,2.224,39.566,8.849"/>
<path fill="none" stroke="#0B3FC1" stroke-width="1.81" stroke-linecap="round" stroke-linejoin="round" stroke-miterlimit="10" d="
	M39.566,8.849c-6.871,6.773-8.836,18.558-3.203,26.392c4.42,6.147,12.538,8.895,20.083,8.269c9.164-0.761,18.063-6.49,21.419-15.052
	c3.357-8.568-0.191-20.477-8.362-25.263C60.773-1.921,46.286,2.224,39.566,8.849z"/>
<path fill="none" stroke="#0B3FC1" stroke-width="1.81" stroke-linecap="round" stroke-linejoin="round" stroke-miterlimit="10" d="
	M64.019,12.865c-2.24-2.524-6.511-2.412-9.195-0.367c-2.684,2.046-3.955,5.506-4.232,8.868c-0.312,3.795,0.674,7.974,3.664,10.33
	s8.205,1.835,9.785-1.629"/>
<path fill="none" stroke="#0B3FC1" stroke-width="1.81" stroke-linecap="round" stroke-linejoin="round" stroke-miterlimit="10" d="
	M43.738,22.232c4.648-0.905,9.299-1.812,13.947-2.717"/>
<path fill="none" stroke="#0B3FC1" stroke-width="1.81" stroke-linecap="round" stroke-linejoin="round" stroke-miterlimit="10" d="
	M45.848,28.749c3.918-2.076,8.104-3.647,12.42-4.664"/>
</svg>
