<?xml version="1.0" encoding="utf-8"?>
<!-- Generator: Adobe Illustrator 16.0.0, SVG Export Plug-In . SVG Version: 6.00 Build 0)  -->
<!DOCTYPE svg PUBLIC "-//W3C//DTD SVG 1.1//EN" "http://www.w3.org/Graphics/SVG/1.1/DTD/svg11.dtd">
<svg version="1.1" id="Calque_1" xmlns="http://www.w3.org/2000/svg" xmlns:xlink="http://www.w3.org/1999/xlink" x="0px" y="0px"
	 width="57.074px" height="46.7px" viewBox="0 0 57.074 46.7" enable-background="new 0 0 57.074 46.7" xml:space="preserve">
<path fill="none" stroke="#0B3FC0" stroke-linecap="round" stroke-linejoin="round" stroke-miterlimit="10" d="M47.953,0.905
	c0.161-0.213,0.382-0.45,0.643-0.398c0.254,0.049,0.372,0.338,0.446,0.586c0.411,1.375,0.823,2.75,1.235,4.125
	c2.099,0.148,4.197,0.295,6.297,0.443c-1.794,1.487-3.719,2.817-5.746,3.968c1.021,1.59,1.553,3.494,1.499,5.384
	c-1.807-0.52-3.51-1.402-4.978-2.577c-0.155-0.125-0.32-0.257-0.518-0.28c-0.229-0.026-0.445,0.102-0.643,0.222
	c-1.469,0.888-3.053,1.589-4.7,2.075c0.435-1.747,1.102-3.437,1.979-5.008c-1.593-1.156-3.185-2.313-4.777-3.471
	c1.89-0.583,4.753-0.108,6.588-0.697C45.279,5.277,47.056,2.091,47.953,0.905z"/>
<path fill="none" stroke="#0B3FC0" stroke-linecap="round" stroke-linejoin="round" stroke-miterlimit="10" d="M34.098,15.187
	c0.425-3.265-2.252-6.125-5.081-7.809c-4.554-2.712-10.144-3.764-15.302-2.546C8.556,6.048,3.927,9.613,1.741,14.442
	c-1.979,4.371-1.704,10.015,1.655,13.442c0.867,0.885,1.901,1.595,2.992,2.183c6.002,3.231,13.916,2.481,19.205-1.819
	c1.861,1.729,3.987,3.172,6.28,4.268c-0.419-2.348-1.071-4.652-1.942-6.871c3.553-3.21,5.291-8.309,4.439-13.021"/>
<path fill="none" stroke="#0B3FC0" stroke-linecap="round" stroke-linejoin="round" stroke-miterlimit="10" d="M17.16,28.871
	c-0.425-3.266,2.251-6.125,5.08-7.81c4.555-2.711,10.144-3.763,15.303-2.545c5.159,1.216,9.787,4.782,11.973,9.611
	c1.98,4.371,1.705,10.016-1.653,13.442c-0.867,0.885-1.901,1.595-2.993,2.183c-6.002,3.231-13.916,2.481-19.204-1.82
	c-1.861,1.729-3.987,3.174-6.28,4.269c0.419-2.347,1.07-4.652,1.941-6.871c-3.553-3.21-5.291-8.31-4.438-13.021"/>
</svg>
