<?xml version="1.0" encoding="utf-8"?>
<!-- Generator: Adobe Illustrator 16.0.0, SVG Export Plug-In . SVG Version: 6.00 Build 0)  -->
<!DOCTYPE svg PUBLIC "-//W3C//DTD SVG 1.1//EN" "http://www.w3.org/Graphics/SVG/1.1/DTD/svg11.dtd">
<svg version="1.1" id="Calque_1" xmlns="http://www.w3.org/2000/svg" xmlns:xlink="http://www.w3.org/1999/xlink" x="0px" y="0px"
	 width="91.066px" height="171.588px" viewBox="0 0 91.066 171.588" enable-background="new 0 0 91.066 171.588"
	 xml:space="preserve">
<path fill="none" stroke="#0B3FC1" stroke-width="1.995" stroke-linecap="round" stroke-linejoin="round" stroke-miterlimit="10" d="
	M31.126,170.591c0,0-0.742-15.486-0.589-18.796c0.152-3.308-0.347-5.919,1.606-9.929c1.953-4.01,6.787-8.068,14.116-14.472
	c7.329-6.403,12.997-9.969,16.593-15.196c3.594-5.228,8.895-13.474,14.267-18.929s12.233-7.54,12.884-9.9
	c0.65-2.359-3.654-4.253-7.775-4.606c-4.119-0.354-11.445,6.524-13.807,8.329c-2.361,1.804-8.747,7.104-8.747,7.104
	s-1.827-2.654-0.685-6.865c1.142-4.211,6.049-20.493,8.965-27.993s7.035-23.308,8.4-28.42c1.366-5.112,3.502-9.872,0.771-10.763
	c-2.515-0.821-7.524,9.85-10.465,15.908c-2.94,6.06-9.218,24.351-9.712,25.566c-0.492,1.217-4.176,11.362-6.896,10.092
	c-2.719-1.271,2.841-28.75,3.22-31.812c0.377-3.062,3.475-27.482,3.738-30.058c0.251-2.447,1.857-7.955-0.867-8.822
	c-1.515-0.482-4.496,4.621-6.468,11.017s-9.184,31.955-9.968,34.726c-0.784,2.77-2.819,18.509-5.4,17.882
	c-2.58-0.63-1.244-18.856-1.635-25.748c-0.392-6.891-1.186-26.789-1.709-30.457c-0.523-3.669-2.899-3.836-4.209-2.339
	c-0.875,1-3.887,23.283-4.354,27.854c-0.466,4.57-3.671,34.82-6.658,34.587C12.754,68.318,9.979,51.721,9.14,47.4
	c-0.839-4.321-1.283-9.508-3.908-9.291c-4.234,0.348-1.967,25.236-1.825,30.818c0.143,5.582,2.434,33.694,2.822,37.139
	c0.388,3.443,1.916,17.69,2.46,20.504c0.544,2.812,1.365,9.902,0.717,13.279c-0.648,3.378-8.408,23.828-8.408,23.828"/>
</svg>
