<?xml version="1.0" encoding="utf-8"?>
<!-- Generator: Adobe Illustrator 16.0.0, SVG Export Plug-In . SVG Version: 6.00 Build 0)  -->
<!DOCTYPE svg PUBLIC "-//W3C//DTD SVG 1.1//EN" "http://www.w3.org/Graphics/SVG/1.1/DTD/svg11.dtd">
<svg version="1.1" id="Calque_1" xmlns="http://www.w3.org/2000/svg" xmlns:xlink="http://www.w3.org/1999/xlink" x="0px" y="0px"
	 width="39.048px" height="41.312px" viewBox="0 0 39.048 41.312" enable-background="new 0 0 39.048 41.312" xml:space="preserve">
<path fill="none" stroke="#FFFFFF" stroke-linecap="round" stroke-linejoin="round" stroke-miterlimit="10" d="M16.074,1.142
	C11.447,2.541,7.755,6.11,5.021,10.096c-2.396,3.494-4.228,7.497-4.489,11.726c-0.298,4.807,1.535,9.687,4.846,13.185
	c3.312,3.497,8.038,5.586,12.85,5.79c8.963,0.379,17.692-6.259,19.841-14.971C41.047,13.745,29.748-2.992,16.074,1.142z"/>
<path fill="none" stroke="#FFFFFF" stroke-linecap="round" stroke-linejoin="round" stroke-miterlimit="10" d="M28.874,38.437
	c0.004-4.607-0.917-9.213-2.692-13.463c-0.706-1.69-1.816-3.53-3.631-3.779c2.333-0.254,4.086-2.721,3.817-5.052
	c-0.269-2.331-2.298-4.259-4.604-4.696c-2.305-0.438-4.75,0.482-6.432,2.118c-1.137,1.107-1.983,2.6-1.994,4.187
	c-0.012,1.587,2.588,2.905,4.107,3.363c-4.015,4.374-7.59,11.387-7.646,17.324"/>
</svg>
