<?xml version="1.0" encoding="utf-8"?>
<!-- Generator: Adobe Illustrator 16.0.0, SVG Export Plug-In . SVG Version: 6.00 Build 0)  -->
<!DOCTYPE svg PUBLIC "-//W3C//DTD SVG 1.1//EN" "http://www.w3.org/Graphics/SVG/1.1/DTD/svg11.dtd">
<svg version="1.1" id="Calque_1" xmlns="http://www.w3.org/2000/svg" xmlns:xlink="http://www.w3.org/1999/xlink" x="0px" y="0px"
	 width="35.354px" height="34.829px" viewBox="0 0 35.354 34.829" enable-background="new 0 0 35.354 34.829" xml:space="preserve">
<path fill="#FFFFFF" d="M11.392,1.861C7.899,2.91,4.657,5.09,2.821,8.241c-1.472,2.523-1.972,5.534-1.782,8.449
	c0.188,2.914,1.035,5.752,2.109,8.468c0.472,1.189,0.996,2.377,1.792,3.378c0.983,1.238,2.329,2.13,3.673,2.96
	c0.959,0.594,1.935,1.17,2.985,1.576c4.062,1.575,8.649,0.444,12.713-1.13c1.619-0.627,3.237-1.339,4.567-2.456
	c1.099-0.921,1.965-2.092,2.696-3.324c3.315-5.593,3.82-12.936,0.67-18.623c-1.043-1.885-2.474-3.58-4.276-4.761
	c-2.389-1.564-4.689-1.46-7.381-1.666C17.496,0.876,14.383,0.964,11.392,1.861"/>
<path fill="none" stroke="#0B3FC1" stroke-width="2" stroke-linecap="round" stroke-linejoin="round" stroke-miterlimit="10" d="
	M11.392,1.861C7.899,2.91,4.657,5.09,2.821,8.241c-1.472,2.523-1.972,5.534-1.782,8.449c0.188,2.914,1.035,5.752,2.109,8.468
	c0.472,1.189,0.996,2.377,1.792,3.378c0.983,1.238,2.329,2.13,3.673,2.96c0.959,0.594,1.935,1.17,2.985,1.576
	c4.062,1.575,8.649,0.444,12.713-1.13c1.619-0.627,3.237-1.339,4.567-2.456c1.099-0.921,1.965-2.092,2.696-3.324
	c3.315-5.593,3.82-12.936,0.67-18.623c-1.043-1.885-2.474-3.58-4.276-4.761c-2.389-1.564-4.689-1.46-7.381-1.666
	C17.496,0.876,14.383,0.964,11.392,1.861z"/>
<path fill="none" stroke="#0B3FC1" stroke-width="2" stroke-linecap="round" stroke-linejoin="round" stroke-miterlimit="10" d="
	M18.107,14.403c0.447-0.791,0.9-1.59,1.521-2.255c0.621-0.664,1.433-1.191,2.335-1.294c1.105-0.126,2.258,0.45,2.821,1.409
	c0.135,0.231,0.244,0.489,0.448,0.662c0.431,0.368,1.081,0.226,1.623,0.063c-0.236,0.415-0.629,0.74-1.082,0.896
	c0.422,0.084,0.861,0.08,1.281-0.015c-0.396,0.43-0.909,0.75-1.469,0.916c-0.365,0.837-0.729,1.673-1.094,2.51
	c-0.377,0.862-0.755,1.728-1.262,2.521c-1.829,2.859-5.214,4.476-8.595,4.771c-1.633,0.141-3.329-0.004-4.796-0.732
	c-1.466-0.729-2.666-2.113-2.88-3.737c3.359,0.438,6.888-0.646,9.421-2.894c-1.359-0.804-2.268-2.327-2.328-3.906
	c0.116-0.003,0.234-0.006,0.352-0.008c-0.347,0.007-0.248-2.122-0.203-2.351c0.241-1.227,0.551-0.272,0.873,0.326
	C15.772,12.576,16.832,13.674,18.107,14.403z"/>
</svg>
