<?xml version="1.0" encoding="utf-8"?>
<!-- Generator: Adobe Illustrator 16.0.0, SVG Export Plug-In . SVG Version: 6.00 Build 0)  -->
<!DOCTYPE svg PUBLIC "-//W3C//DTD SVG 1.1//EN" "http://www.w3.org/Graphics/SVG/1.1/DTD/svg11.dtd">
<svg version="1.1" id="Calque_1" xmlns="http://www.w3.org/2000/svg" xmlns:xlink="http://www.w3.org/1999/xlink" x="0px" y="0px"
	 width="147.798px" height="159.961px" viewBox="0 0 147.798 159.961" enable-background="new 0 0 147.798 159.961"
	 xml:space="preserve">
<path fill="none" stroke="#0B3FC0" stroke-width="2" stroke-miterlimit="10" d="M50.761,9.736
	c-17.954,9.421-31.539,25.873-40.333,44.142C3.616,68.026-0.6,83.901,1.576,99.451c1.471,10.494,5.774,20.394,10.866,29.688
	c4.153,7.579,9.104,15.106,16.455,19.653c6.222,3.849,13.613,5.224,20.812,6.527c23.37,4.229,50.058,7.688,68.59-7.165
	c11.999-9.616,17.701-24.909,22.247-39.599c4.046-13.078,7.641-26.764,5.72-40.319C143.484,48.61,127.812,17.571,110.301,6.7
	C93.983-3.431,66.587,1.431,50.761,9.736z"/>
</svg>
