<?xml version="1.0" encoding="utf-8"?>
<!-- Generator: Adobe Illustrator 16.0.0, SVG Export Plug-In . SVG Version: 6.00 Build 0)  -->
<!DOCTYPE svg PUBLIC "-//W3C//DTD SVG 1.1//EN" "http://www.w3.org/Graphics/SVG/1.1/DTD/svg11.dtd">
<svg version="1.1" id="Calque_1" xmlns="http://www.w3.org/2000/svg" xmlns:xlink="http://www.w3.org/1999/xlink" x="0px" y="0px"
	 width="125.1px" height="76.809px" viewBox="0 0 125.1 76.809" enable-background="new 0 0 125.1 76.809" xml:space="preserve">
<path fill="none" stroke="#0B3FC1" stroke-width="1.81" stroke-linecap="round" stroke-linejoin="round" stroke-miterlimit="10" d="
	M31.354,4.906c3.179,6.523,5.412,13.508,6.609,20.666c8.135-0.587,16.269-1.173,24.404-1.76c-4.813,4.35-9.627,8.699-14.44,13.049
	c-1.076,0.973-2.189,1.998-2.702,3.354c-0.607,1.604-0.275,3.394,0.065,5.075c1.252,6.205,2.506,12.409,3.759,18.614
	c-6.828-3.847-12.965-8.918-18.03-14.898c-4.898,4.446-9.498,9.224-13.756,14.287c1.29-7.437,2.135-14.951,2.531-22.49
	c-7.666-2.278-11.571-7.669-18.889-10.898c1.684,0.743,11.947-1.478,14-2c3.148-0.801,4.094,0.265,6.6-1.552
	c2.151-1.558,3.159-7.127,4.253-9.679C27.47,12.68,29.337,8.754,31.354,4.906z"/>
<path fill="#DAE1F6" d="M56.619,2.99c-9.226,4.208-12.588,17.218-7.399,25.93c5.189,8.712,17.182,12.169,26.663,8.575
	c5.889-2.233,10.992-7.149,12.272-13.315C91.907,6.114,71.153-3.641,56.619,2.99 M80.015,22.479
	c-0.771,3.714-3.845,6.674-7.391,8.019c-5.711,2.165-12.934,0.083-16.059-5.165c-3.125-5.247-1.1-13.082,4.456-15.617
	C69.775,5.723,82.274,11.598,80.015,22.479"/>
<path fill="none" stroke="#0B3FC1" stroke-width="1.81" stroke-linecap="round" stroke-linejoin="round" stroke-miterlimit="10" d="
	M56.619,2.99c-9.226,4.208-12.588,17.218-7.399,25.93c5.189,8.712,17.182,12.169,26.663,8.575
	c5.889-2.233,10.992-7.149,12.272-13.315C91.907,6.114,71.153-3.641,56.619,2.99z M80.015,22.479
	c-0.771,3.714-3.845,6.674-7.391,8.019c-5.711,2.165-12.934,0.083-16.059-5.165c-3.125-5.247-1.1-13.082,4.456-15.617
	C69.775,5.723,82.274,11.598,80.015,22.479z"/>
<path fill="none" stroke="#0B3FC1" stroke-width="1.81" stroke-linecap="round" stroke-linejoin="round" stroke-miterlimit="10" d="
	M91.487,37.407c0.371-0.287,0.775-0.588,1.244-0.604c0.577-0.022,1.07,0.386,1.5,0.773c11.377,10.256,21.469,21.937,29.963,34.685
	c-1.707,1.201-3.415,2.404-5.122,3.606c-1.374,0.968-19.382-16.992-21.269-18.83c-3.429-3.343-6.863-6.729-10.062-10.296
	C83.388,41.885,87.093,40.81,91.487,37.407z"/>
<path fill="none" stroke="#0B3FC1" stroke-width="1.81" stroke-linecap="round" stroke-linejoin="round" stroke-miterlimit="10" d="
	M81.678,33.938c1.832,2.381,4.217,4.333,6.913,5.659"/>
</svg>
