<?xml version="1.0" encoding="utf-8"?>
<!-- Generator: Adobe Illustrator 16.0.0, SVG Export Plug-In . SVG Version: 6.00 Build 0)  -->
<!DOCTYPE svg PUBLIC "-//W3C//DTD SVG 1.1//EN" "http://www.w3.org/Graphics/SVG/1.1/DTD/svg11.dtd">
<svg version="1.1" id="Calque_1" xmlns="http://www.w3.org/2000/svg" xmlns:xlink="http://www.w3.org/1999/xlink" x="0px" y="0px"
	 width="19.888px" height="21px" viewBox="0 0 19.888 21" enable-background="new 0 0 19.888 21" xml:space="preserve">
<path fill="none" stroke="#0B3FC1" stroke-linecap="round" stroke-linejoin="round" stroke-miterlimit="10" d="M9.438,0.501
	c-0.053-0.071,1.23,4.896,1.845,7.343c0.073,0.289,0.161,0.603,0.399,0.781c0.207,0.154,0.481,0.174,0.738,0.188
	c2.322,0.123,4.645,0.248,6.967,0.37c-1.986,1.264-3.973,2.527-5.959,3.792c0.863,2.341,1.494,4.769,1.883,7.233
	c-1.478-1.313-2.955-2.63-4.432-3.945c-0.31-0.275-0.435-0.249-0.847-0.295c-0.448-0.05-0.589,0.086-0.971,0.324
	c-1.414,0.881-4.737,3.326-6.151,4.208c0.857-1.837,3.13-5.441,3.986-7.278C4.681,12.403,2.538,11.39,0.5,10.194
	c1.678-0.405,5.972-1.348,7.047-1.583C7.68,8.582,8.175,5.587,8.388,4.61C8.594,3.667,9.491,0.571,9.438,0.501z"/>
</svg>
