<?xml version="1.0" encoding="utf-8"?>
<!-- Generator: Adobe Illustrator 16.0.0, SVG Export Plug-In . SVG Version: 6.00 Build 0)  -->
<!DOCTYPE svg PUBLIC "-//W3C//DTD SVG 1.1//EN" "http://www.w3.org/Graphics/SVG/1.1/DTD/svg11.dtd">
<svg version="1.1" id="Calque_1" xmlns="http://www.w3.org/2000/svg" xmlns:xlink="http://www.w3.org/1999/xlink" x="0px" y="0px"
	 width="34.09px" height="37.377px" viewBox="0 0 34.09 37.377" enable-background="new 0 0 34.09 37.377" xml:space="preserve">
<path fill="#FFFFFF" d="M9.387,3.975C5.287,7.084,2.827,11.96,1.6,16.958c-0.523,2.127-0.845,4.364-0.365,6.501
	c0.362,1.613,1.162,3.089,1.964,4.535c1.494,2.694,3.145,5.492,5.813,7.032c3.28,1.895,7.378,1.48,11.076,0.663
	c1.585-0.35,3.183-0.774,4.562-1.628c1.471-0.909,2.615-2.259,3.646-3.648c2.879-3.886,5.127-8.556,4.753-13.377
	c-0.354-4.559-2.979-8.535-5.93-11.871c-1.373-1.552-2.447-2.731-4.431-3.328c-2.18-0.656-4.187-1.048-6.478-0.718
	C13.749,1.473,11.37,2.471,9.387,3.975"/>
<path fill="none" stroke="#0B3FC1" stroke-width="2" stroke-linecap="round" stroke-linejoin="round" stroke-miterlimit="10" d="
	M9.387,3.975C5.287,7.084,2.827,11.96,1.6,16.958c-0.523,2.127-0.845,4.364-0.365,6.501c0.362,1.613,1.162,3.089,1.964,4.535
	c1.494,2.694,3.145,5.492,5.813,7.032c3.28,1.895,7.378,1.48,11.076,0.663c1.585-0.35,3.183-0.774,4.562-1.628
	c1.471-0.909,2.615-2.259,3.646-3.648c2.879-3.886,5.127-8.556,4.753-13.377c-0.354-4.559-2.979-8.535-5.93-11.871
	c-1.373-1.552-2.447-2.731-4.431-3.328c-2.18-0.656-4.187-1.048-6.478-0.718C13.749,1.473,11.37,2.471,9.387,3.975z"/>
<path fill="none" stroke="#0B3FC1" stroke-width="2" stroke-linecap="round" stroke-linejoin="round" stroke-miterlimit="10" d="
	M17.35,27.87c-1.992-4.629-3.113-9.631-3.287-14.667c-0.023-0.662-0.018-1.367,0.338-1.926c0.528-0.83,1.622-1.048,2.596-1.19
	c0.776-0.114,1.554-0.229,2.331-0.344"/>
<path fill="none" stroke="#0B3FC1" stroke-width="2" stroke-linecap="round" stroke-linejoin="round" stroke-miterlimit="10" d="
	M12.282,22.588c2.416-0.854,4.831-1.707,7.246-2.561"/>
</svg>
