<?xml version="1.0" encoding="utf-8"?>
<!-- Generator: Adobe Illustrator 16.0.0, SVG Export Plug-In . SVG Version: 6.00 Build 0)  -->
<!DOCTYPE svg PUBLIC "-//W3C//DTD SVG 1.1//EN" "http://www.w3.org/Graphics/SVG/1.1/DTD/svg11.dtd">
<svg version="1.1" id="Calque_1" xmlns="http://www.w3.org/2000/svg" xmlns:xlink="http://www.w3.org/1999/xlink" x="0px" y="0px"
	 width="26.192px" height="25.406px" viewBox="0 0 26.192 25.406" enable-background="new 0 0 26.192 25.406" xml:space="preserve">
<path fill="none" stroke="#FFFFFF" stroke-linecap="round" stroke-linejoin="round" stroke-miterlimit="10" d="M3.703,1.178
	c-3.002,1.37-4.097,5.604-2.408,8.438s5.591,3.96,8.677,2.79c1.916-0.726,3.576-2.326,3.993-4.333
	C15.184,2.196,8.431-0.979,3.703,1.178z"/>
<path fill="none" stroke="#FFFFFF" stroke-linecap="round" stroke-linejoin="round" stroke-miterlimit="10" d="M5.135,3.368
	C3.327,4.192,2.668,6.742,3.685,8.45c1.017,1.707,3.367,2.385,5.226,1.68c1.153-0.437,2.154-1.401,2.405-2.609
	C12.05,3.979,7.984,2.068,5.135,3.368z"/>
<path fill="none" stroke="#FFFFFF" stroke-linecap="round" stroke-linejoin="round" stroke-miterlimit="10" d="M15.048,12.378
	c0.121-0.094,0.253-0.191,0.405-0.197c0.188-0.007,0.349,0.126,0.488,0.252c3.702,3.337,6.985,7.138,9.75,11.286l-1.667,1.174
	c-0.447,0.315-6.307-5.529-6.921-6.127c-1.115-1.088-2.233-2.19-3.274-3.351C12.414,13.835,13.619,13.486,15.048,12.378z"/>
<path fill="none" stroke="#FFFFFF" stroke-linecap="round" stroke-linejoin="round" stroke-miterlimit="10" d="M11.857,11.249
	c0.596,0.775,1.372,1.41,2.249,1.841"/>
</svg>
