<?xml version="1.0" encoding="utf-8"?>
<!-- Generator: Adobe Illustrator 16.0.0, SVG Export Plug-In . SVG Version: 6.00 Build 0)  -->
<!DOCTYPE svg PUBLIC "-//W3C//DTD SVG 1.1//EN" "http://www.w3.org/Graphics/SVG/1.1/DTD/svg11.dtd">
<svg version="1.1" id="Calque_1" xmlns="http://www.w3.org/2000/svg" xmlns:xlink="http://www.w3.org/1999/xlink" x="0px" y="0px"
	 width="41.478px" height="42.64px" viewBox="0 0 41.478 42.64" enable-background="new 0 0 41.478 42.64" xml:space="preserve">
<path fill="none" stroke="#0B3FC1" stroke-miterlimit="10" d="M12.878,17.499c0.933-3.228,3.255-5.886,4.407-9.041
	c0.902-2.47,1.095-5.248,2.591-7.41c2.066,5.126,4.136,10.251,6.203,15.376c4.741-0.157,9.496,0.071,14.2,0.685l-9.546,7.96
	c-0.234,0.196-0.478,0.403-0.607,0.681c-0.214,0.46-0.071,0.998,0.07,1.484c1.372,4.705,2.407,9.509,3.092,14.363
	c-4.509-3.05-8.64-6.658-12.265-10.718c-0.195-0.219-0.438-0.46-0.73-0.426c-0.157,0.019-0.292,0.113-0.419,0.206
	c-4.354,3.175-8.708,6.35-13.062,9.525c1.968-4.595,3.936-9.188,5.904-13.782c-3.67-2.625-10.145-5.937-11.938-9.055
	C3.332,16.831,10.261,17.57,12.878,17.499z"/>
</svg>
