<?xml version="1.0" encoding="utf-8"?>
<!-- Generator: Adobe Illustrator 16.0.0, SVG Export Plug-In . SVG Version: 6.00 Build 0)  -->
<!DOCTYPE svg PUBLIC "-//W3C//DTD SVG 1.1//EN" "http://www.w3.org/Graphics/SVG/1.1/DTD/svg11.dtd">
<svg version="1.1" id="Calque_1" xmlns="http://www.w3.org/2000/svg" xmlns:xlink="http://www.w3.org/1999/xlink" x="0px" y="0px"
	 width="166.625px" height="87.765px" viewBox="0 0 166.625 87.765" enable-background="new 0 0 166.625 87.765"
	 xml:space="preserve">
<path fill="none" stroke="#FFFFFF" stroke-width="1.81" stroke-linecap="round" stroke-linejoin="round" stroke-miterlimit="10" d="
	M113.826,8.461c1.343,3.909,2.687,7.818,4.03,11.728c-4.832-0.93-9.565,2.066-10.962,7.352c-1.397,5.285,0.931,12.446,5.352,15.691
	c4.422,3.246,10.316,1.718,12.011-3.386c2.1,4.367,4.2,8.734,6.299,13.102C100.792,63.636,71.25,74.94,41.945,86.86
	c-1.388-3.438-2.776-6.877-4.165-10.315c3.132-1.745,6.38-3.608,8.259-7.069s1.882-9.029-1.005-12.408
	c-3.93-4.596-9.657-2.243-13.77,0.435c-0.973-3.263-6.017-11.05-5.696-14.022c0.409-3.801,6.515-4.476,9.181-5.557
	c8.747-3.548,17.527-7.011,26.339-10.39C65.415,25.875,113.713,8.135,113.826,8.461z"/>
<path fill="none" stroke="#FFFFFF" stroke-width="1.81" stroke-linecap="round" stroke-linejoin="round" stroke-miterlimit="10" d="
	M59.757,69.347l47.613-19.312c-2.716-8.708-5.983-17.264-9.764-25.549c-0.29-0.636-0.643-1.335-1.19-1.583
	c-0.432-0.196-0.867-0.053-1.264,0.102c-3.709,1.457-6.983,3.902-10.354,6.109c-9.355,6.127-19.34,9.482-29.796,12.847
	c-5.18,1.667-5.693,2.63-2.828,9.218C52.826,52.677,60.049,69.229,59.757,69.347z"/>
<path fill="none" stroke="#FFFFFF" stroke-width="1.81" stroke-linecap="round" stroke-linejoin="round" stroke-miterlimit="10" d="
	M145.447,52.62c0.378-0.5,0.896-1.059,1.511-0.938c0.598,0.117,0.873,0.797,1.048,1.381c0.969,3.233,1.937,6.466,2.905,9.699
	c4.937,0.347,9.872,0.693,14.809,1.041c-4.218,3.498-8.745,6.625-13.512,9.33c2.404,3.742,3.65,8.219,3.525,12.666
	c-4.251-1.226-8.255-3.299-11.708-6.063c-0.364-0.292-0.752-0.604-1.216-0.657c-0.54-0.062-1.047,0.238-1.512,0.52
	c-3.455,2.092-7.179,3.736-11.052,4.879c1.021-4.107,2.59-8.079,4.655-11.774c-3.745-2.72-7.491-5.44-11.236-8.161
	c4.445-1.371,11.178-0.256,15.494-1.642C139.159,62.9,143.338,55.409,145.447,52.62z"/>
<path fill="none" stroke="#FFFFFF" stroke-width="1.81" stroke-linecap="round" stroke-linejoin="round" stroke-miterlimit="10" d="
	M55.685,1.377c0.187-0.247,0.443-0.523,0.748-0.464c0.296,0.059,0.433,0.395,0.519,0.684c0.479,1.6,0.959,3.2,1.438,4.801
	c2.442,0.171,4.886,0.342,7.329,0.514c-2.088,1.732-4.328,3.279-6.688,4.618c1.19,1.853,1.807,4.068,1.745,6.269
	c-2.104-0.607-4.086-1.632-5.795-3.001c-0.181-0.145-0.372-0.299-0.602-0.325c-0.268-0.031-0.519,0.118-0.748,0.258
	c-1.71,1.035-3.554,1.848-5.471,2.415c0.505-2.034,1.282-3.999,2.305-5.829c-1.854-1.346-3.708-2.693-5.562-4.039
	c2.2-0.678,5.532-0.127,7.669-0.812C52.574,6.466,54.642,2.758,55.685,1.377z"/>
<path fill="none" stroke="#FFFFFF" stroke-width="1.81" stroke-linecap="round" stroke-linejoin="round" stroke-miterlimit="10" d="
	M7.12,65.331c0.107-0.143,0.256-0.302,0.432-0.268c0.171,0.035,0.249,0.228,0.298,0.395c0.277,0.923,0.554,1.846,0.83,2.768
	c1.408,0.099,2.817,0.198,4.226,0.297c-1.204,0.998-2.495,1.891-3.855,2.662c0.687,1.068,1.042,2.346,1.006,3.614
	c-1.213-0.35-2.355-0.942-3.341-1.729c-0.104-0.084-0.215-0.174-0.347-0.188c-0.154-0.018-0.299,0.068-0.432,0.148
	c-0.985,0.598-2.048,1.067-3.153,1.393c0.291-1.172,0.739-2.306,1.328-3.36c-1.068-0.775-2.138-1.551-3.206-2.328
	c1.269-0.391,3.189-0.073,4.421-0.469C5.326,68.265,6.518,66.127,7.12,65.331z"/>
</svg>
