<?xml version="1.0" encoding="utf-8"?>
<!-- Generator: Adobe Illustrator 16.0.0, SVG Export Plug-In . SVG Version: 6.00 Build 0)  -->
<!DOCTYPE svg PUBLIC "-//W3C//DTD SVG 1.1//EN" "http://www.w3.org/Graphics/SVG/1.1/DTD/svg11.dtd">
<svg version="1.1" id="Calque_1" xmlns="http://www.w3.org/2000/svg" xmlns:xlink="http://www.w3.org/1999/xlink" x="0px" y="0px"
	 width="40.485px" height="39.393px" viewBox="0 0 40.485 39.393" enable-background="new 0 0 40.485 39.393" xml:space="preserve">
<path fill="none" stroke="#FFFFFF" stroke-linecap="round" stroke-linejoin="round" stroke-miterlimit="10" d="M39.979,22.996
	c0.132-4.833-2.092-9.459-5.014-13.312c-2.561-3.375-5.781-6.375-9.713-7.957c-4.467-1.798-9.676-1.596-14.039,0.444
	c-4.362,2.04-7.834,5.867-9.545,10.369c-3.186,8.386,0.363,18.763,7.952,23.547C20.147,42.724,39.592,37.276,39.979,22.996z"/>
<path fill="none" stroke="#FFFFFF" stroke-linecap="round" stroke-linejoin="round" stroke-miterlimit="10" d="M31.532,19.585
	c-1.829,3.892-3.278,7.962-4.32,12.135c-4.486-0.303-9.009-0.073-13.441,0.685c-0.256,0.045-0.528,0.088-0.764-0.021
	c-0.258-0.119-0.403-0.391-0.53-0.645c-1.337-2.674-2.608-5.457-3.529-8.305c-0.866-2.679,0.021-3.688,2.778-3.851
	C18.275,19.196,24.969,19.585,31.532,19.585z"/>
<path fill="none" stroke="#FFFFFF" stroke-linecap="round" stroke-linejoin="round" stroke-miterlimit="10" d="M15.984,19.258
	c0.315-2.545,0.828-5.066,1.532-7.532c0.372-1.302,0.886-2.703,2.058-3.382c0.213-0.123,0.46-0.221,0.701-0.171
	c0.446,0.092,0.643,0.608,0.755,1.05c0.837,3.278,1.323,6.644,1.448,10.025"/>
<path fill="none" stroke="#FFFFFF" stroke-linecap="round" stroke-linejoin="round" stroke-miterlimit="10" d="M8.97,23.723
	c6.748-0.08,13.495-0.16,20.243-0.238"/>
<path fill="none" stroke="#FFFFFF" stroke-linecap="round" stroke-linejoin="round" stroke-miterlimit="10" d="M10.862,28.902
	c5.503-0.866,11.122-0.993,16.658-0.376"/>
<path fill="none" stroke="#FFFFFF" stroke-linecap="round" stroke-linejoin="round" stroke-miterlimit="10" d="M12.529,19.603
	c0.851,1.326,1.182,2.909,1.496,4.453c0.545,2.673,1.09,5.345,1.635,8.019"/>
<path fill="none" stroke="#FFFFFF" stroke-linecap="round" stroke-linejoin="round" stroke-miterlimit="10" d="M20.378,19.244
	c-0.091,4.163,0.021,8.33,0.336,12.482c0.016,0.203,0.283,0.455,0.345,0.259"/>
<path fill="none" stroke="#FFFFFF" stroke-linecap="round" stroke-linejoin="round" stroke-miterlimit="10" d="M27.245,19.594
	c-0.548,4.048-1.266,8.073-2.152,12.061"/>
</svg>
